<svg version="1.1" id="Layer_1" xmlns="http://www.w3.org/2000/svg" xmlns:xlink="http://www.w3.org/1999/xlink" x="0px" y="0px"
	 width="100%" viewBox="0 0 1024 1024" enable-background="new 0 0 1024 1024" xml:space="preserve">
<path fill="#000008" opacity="1.000000" stroke="none" 
	d="
M702.000000,1025.000000 
	C468.000000,1025.000000 234.500000,1025.000000 1.000000,1025.000000 
	C1.000000,683.666687 1.000000,342.333344 1.000000,1.000000 
	C342.333344,1.000000 683.666687,1.000000 1025.000000,1.000000 
	C1025.000000,342.333344 1025.000000,683.666687 1025.000000,1025.000000 
	C917.500000,1025.000000 810.000000,1025.000000 702.000000,1025.000000 
M790.026062,524.025818 
	C790.026062,524.025818 790.032776,524.206421 790.558228,523.971313 
	C790.757996,523.652466 790.957764,523.333679 791.058411,523.035278 
	C791.058411,523.035278 791.083008,523.133423 791.548523,522.929993 
	C791.889893,522.554321 792.231323,522.178589 792.882996,521.665222 
	C792.882996,521.665222 792.928955,521.328918 793.059814,521.281006 
	C793.059814,521.281006 793.036804,521.143616 793.638062,520.820312 
	C805.523560,506.963196 814.039001,491.217926 820.082275,473.290344 
	C820.390625,472.193726 820.698914,471.097107 821.171692,469.676880 
	C821.171692,469.676880 821.103638,469.320312 821.719543,468.908051 
	C829.385986,441.615204 837.052429,414.322388 844.981812,386.222839 
	C845.871216,379.843903 846.947693,373.484528 847.617371,367.082611 
	C850.433350,340.164246 842.304871,317.679962 820.172668,301.192688 
	C801.742554,287.463226 780.361755,283.465759 757.110291,282.677887 
	C709.038940,282.655945 660.967529,282.616669 612.896362,282.700745 
	C611.540710,282.703125 610.187439,284.022064 608.305298,285.284851 
	C605.917053,293.863983 603.528809,302.443115 600.920471,311.751251 
	C596.730530,326.490784 592.540527,341.230347 588.017944,356.692200 
	C585.350281,365.331848 582.549255,373.933136 580.052429,382.621887 
	C577.538269,391.370941 575.326538,400.206940 572.706726,409.399078 
	C572.706726,409.399078 572.536865,409.849030 572.080566,410.311707 
	C571.950012,411.166199 571.819519,412.020660 571.094543,413.348206 
	C570.856018,414.469604 570.678711,415.608185 570.369995,416.709961 
	C562.683899,444.140350 554.983887,471.566833 547.063965,499.784180 
	C546.358521,502.476074 545.653015,505.167999 544.360352,508.421234 
	C542.216431,515.872009 540.067749,523.321472 537.929321,530.773804 
	C526.342102,571.153503 514.757385,611.533875 503.016846,652.451355 
	C503.036713,652.636292 503.056610,652.821228 502.795288,653.583191 
	C502.810822,654.418091 502.826324,655.253052 502.667023,656.777283 
	C499.997437,665.998962 497.327820,675.220703 494.121918,684.837219 
	C487.285339,708.419922 480.448792,732.002686 473.241669,756.863586 
	C479.661041,752.670837 484.772644,749.314941 489.901367,745.985535 
	C517.591980,728.009277 545.286865,710.039551 573.537109,691.933350 
	C573.751465,691.633911 573.965820,691.334473 574.013672,691.089294 
	C574.013672,691.089294 574.071045,691.254822 574.620605,691.043457 
	C574.808655,690.706665 574.996704,690.369873 575.080017,690.060852 
	C575.080017,690.060852 575.113647,690.163818 575.717773,689.720398 
	C575.901123,688.481934 576.084534,687.243469 576.108826,686.057068 
	C576.108826,686.057068 576.168030,686.213623 576.755859,685.741272 
	C578.138977,680.813782 579.522156,675.886230 581.109314,670.368958 
	C581.186462,669.960510 581.263550,669.552002 581.331238,669.078857 
	C581.331238,669.078857 581.368958,669.138672 581.816528,668.571045 
	C584.252869,659.582642 586.689209,650.594177 589.835083,641.245544 
	C591.311218,635.846924 592.787354,630.448242 594.190552,625.056213 
	C594.190552,625.056213 594.216431,625.124634 594.797974,624.678467 
	C596.841125,618.285461 598.953247,611.913513 600.912720,605.494934 
	C604.694641,593.105957 608.390503,580.690796 613.022644,568.105591 
	C638.676208,568.031433 664.329712,567.957275 690.854431,567.965332 
	C697.661438,567.003174 704.479309,566.111511 711.273315,565.065063 
	C729.059448,562.325317 745.741455,556.473267 761.058838,547.044739 
	C761.058838,547.044739 761.140747,547.180176 761.796997,547.049194 
	C763.245667,546.070618 764.694336,545.092102 766.064087,544.040894 
	C766.064087,544.040894 766.099854,544.142090 766.706665,543.988403 
	C767.518616,543.365723 768.330627,542.743042 769.049500,542.024902 
	C769.049500,542.024902 769.110962,542.143250 769.730591,541.964233 
	C770.883850,541.028076 772.037109,540.091858 773.091248,539.090820 
	C773.091248,539.090820 773.146301,539.195618 773.773376,538.990479 
	C775.256775,537.725647 776.740173,536.460876 778.135437,535.178650 
	C778.135437,535.178650 778.131531,535.268494 778.650696,535.113831 
	C778.925049,534.892700 779.199402,534.671570 779.479370,534.221985 
	C779.479370,534.221985 779.519836,534.446838 780.008667,534.211243 
	C780.361450,533.817444 780.714172,533.423645 781.558289,532.870544 
	C781.756714,532.593933 781.955078,532.317322 782.683167,531.874878 
	C783.146973,531.317200 783.610779,530.759460 784.632874,529.939331 
	C785.164062,529.323975 785.695251,528.708557 786.778198,527.878113 
	C787.544312,526.996643 788.310425,526.115173 789.595093,524.980347 
	C789.799011,524.660706 790.002930,524.341003 790.026062,524.025818 
M482.127167,520.106812 
	C482.127167,520.106812 482.140625,520.274536 482.665344,520.045654 
	C482.868439,519.729553 483.071503,519.413391 483.690308,518.951416 
	C483.936096,518.753662 484.062836,518.497131 484.596588,517.892090 
	C484.906189,517.380737 485.215790,516.869385 485.367523,516.322144 
	C485.367523,516.322144 485.360840,516.483887 485.857971,516.161011 
	C486.041809,515.814453 486.225647,515.467896 486.787323,514.953430 
	C486.980682,514.737244 487.076630,514.484131 487.620300,513.880249 
	C487.870819,513.308960 488.121307,512.737671 488.212006,512.158447 
	C488.212006,512.158447 488.220062,512.318176 488.722992,512.075134 
	C488.888062,511.746887 489.053101,511.418671 489.138062,511.096130 
	C489.138062,511.096130 489.153992,511.174866 489.624359,510.936005 
	C489.737823,510.619781 489.851288,510.303558 490.345825,509.569275 
	C490.746307,508.934845 491.146820,508.300415 491.733856,507.589447 
	C491.733856,507.589447 491.712799,507.388916 492.026978,506.903961 
	C492.520355,506.089478 493.013763,505.275024 493.915222,503.977997 
	C494.332611,503.038147 494.750000,502.098297 495.754486,500.797607 
	C496.056580,500.213745 496.416016,499.652100 496.652252,499.042725 
	C501.160828,487.413208 505.654907,475.778076 510.773621,463.774200 
	C511.738403,460.645050 512.797180,457.541290 513.650269,454.381989 
	C516.194946,444.958771 518.658997,435.513733 521.081970,426.063965 
	C521.081970,426.063965 521.086426,426.137604 521.756409,425.804474 
	C522.998840,421.883301 524.241211,417.962097 525.945007,413.364655 
	C528.836121,399.992126 532.318726,386.713867 534.469543,373.223328 
	C537.196411,356.119659 536.959900,338.916687 527.515259,323.597900 
	C523.437500,316.983978 517.241150,311.699280 512.205139,305.646088 
	C507.767975,300.312714 502.481964,296.506195 495.306458,294.484283 
	C493.715820,293.440186 492.125153,292.396088 490.426208,291.305450 
	C490.426208,291.305450 490.349365,291.394836 489.763245,291.013397 
	C478.049225,285.903717 465.619843,284.160553 452.364441,282.979889 
	C451.905731,283.026611 451.447021,283.073364 450.068329,283.000977 
	C444.751617,282.851776 439.434937,282.575500 434.118164,282.573364 
	C389.874847,282.555634 345.631317,282.652008 301.388611,282.496521 
	C297.457886,282.482697 296.038177,283.822235 295.036560,287.341370 
	C287.852692,312.581787 280.490906,337.771606 273.036133,363.491364 
	C273.062195,363.667816 273.088257,363.844299 272.853210,364.728424 
	C267.953918,381.828064 263.046997,398.925537 258.156860,416.027802 
	C247.257248,454.146942 236.302887,492.250610 225.510971,530.400208 
	C222.388947,541.436646 219.742981,552.607605 216.373993,564.286194 
	C214.237656,572.163696 212.101334,580.041199 209.492386,588.499329 
	C205.225937,603.825745 200.959473,619.152100 196.205002,635.078430 
	C194.659698,640.675171 193.114380,646.271912 191.725601,651.864807 
	C191.725601,651.864807 191.703491,651.709839 191.144104,652.258789 
	C190.667725,654.655823 190.191345,657.052917 189.104111,659.766418 
	C187.052582,667.171814 185.001053,674.577271 182.558823,682.560608 
	C182.341370,683.694946 182.123901,684.829224 181.568665,686.516052 
	C181.380035,687.342407 181.191406,688.168701 180.792984,689.402466 
	C180.792984,689.402466 180.703278,689.851868 180.245117,690.232544 
	C180.188858,690.817017 180.132599,691.401428 179.665100,692.650574 
	C173.626526,713.592529 167.587936,734.534485 161.202148,756.680542 
	C172.647919,749.330078 182.964127,742.750122 193.234863,736.099915 
	C215.813904,721.480286 238.369934,706.825073 261.462830,692.025879 
	C261.615570,691.924011 261.768280,691.822083 262.511078,691.421265 
	C263.188721,690.375854 263.866364,689.330444 264.873016,687.677551 
	C265.242096,686.117432 265.611145,684.557251 266.207367,682.477112 
	C266.270721,682.105957 266.334076,681.734863 266.393280,681.338013 
	C266.393280,681.338013 266.368011,681.336182 266.755035,680.998108 
	C266.803162,680.666870 266.851288,680.335571 267.101440,679.256042 
	C269.039398,672.498657 270.977356,665.741211 273.150269,658.261658 
	C274.728394,652.832947 276.306519,647.404175 278.116608,641.289917 
	C278.225006,640.576050 278.333405,639.862122 278.282440,639.136719 
	C278.282440,639.136719 278.289062,639.296326 278.814972,638.824463 
	C278.969086,637.896179 279.123169,636.967896 279.132019,636.063721 
	C279.132019,636.063721 279.164856,636.207214 279.754822,635.759338 
	C279.994690,634.544128 280.234589,633.328857 280.283966,632.119446 
	C280.283966,632.119446 280.307739,632.308594 280.827332,631.891968 
	C280.923431,631.249451 281.019531,630.606934 281.263580,629.693848 
	C281.263580,629.693848 281.172882,629.399109 281.768188,628.918335 
	C282.965240,624.561646 284.162323,620.204956 285.817230,615.190857 
	C288.094391,607.812561 290.385742,600.438599 292.644989,593.054810 
	C295.188110,584.743347 297.702393,576.422974 301.135223,568.078247 
	C313.937775,568.075073 326.740479,568.115112 339.542786,568.057495 
	C354.662628,567.989441 369.782135,567.836914 385.708801,567.596741 
	C394.998779,565.849182 404.288788,564.101624 414.314331,562.187500 
	C421.258301,559.584351 428.202301,556.981140 435.362274,554.790588 
	C435.362274,554.790588 435.791260,554.609192 436.349792,554.244385 
	C438.294464,553.203857 440.239136,552.163330 442.088318,551.104736 
	C442.088318,551.104736 442.078674,551.201477 442.745697,551.085327 
	C444.282532,550.262390 445.819366,549.439453 447.493683,548.694031 
	C447.493683,548.694031 447.607605,548.584839 448.156250,548.220825 
	C449.808624,547.174622 451.460999,546.128479 453.041870,545.014526 
	C453.041870,545.014526 453.077667,545.106323 453.688568,544.962280 
	C454.502502,544.337585 455.316406,543.712891 456.056274,543.043213 
	C456.056274,543.043213 456.082001,543.125977 456.677551,542.959290 
	C457.135620,542.318237 457.593719,541.677185 458.776947,541.012268 
	C466.231598,534.473450 473.686218,527.934631 481.695770,521.149048 
	C481.895660,520.800537 482.095551,520.452026 482.127167,520.106812 
z"/>
<path fill="#22CDDF" opacity="1.000000" stroke="none" 
	d="
M757.997009,283.002563 
	C780.361755,283.465759 801.742554,287.463226 820.172668,301.192688 
	C842.304871,317.679962 850.433350,340.164246 847.617371,367.082611 
	C846.947693,373.484528 845.871216,379.843903 844.535339,386.773071 
	C843.574280,388.498566 842.914185,389.632690 842.568542,390.855682 
	C840.143738,399.435425 837.778992,408.032135 835.404358,416.626007 
	C832.543274,426.980103 829.752869,437.354462 826.771362,447.673645 
	C826.309265,449.273132 824.991272,450.625336 823.875549,451.778625 
	C821.343689,448.256317 818.461853,448.970215 815.181152,449.829590 
	C812.518677,450.526978 809.588684,450.336456 806.781372,450.291687 
	C805.346558,450.268799 803.916748,449.411713 802.490906,449.429504 
	C795.911438,449.511505 789.331299,449.997131 782.756714,449.914093 
	C770.140808,449.754761 757.528564,449.308289 744.935486,448.586121 
	C747.568604,439.393890 750.238403,430.612579 752.721436,421.778809 
	C753.033936,420.667236 752.362976,419.279236 752.147217,417.641418 
	C754.024292,409.272308 756.858093,401.365997 757.577209,393.271820 
	C759.011047,377.133606 759.242432,364.861847 740.782959,357.001831 
	C739.252930,356.009399 737.854004,354.759918 736.433899,354.735443 
	C716.696228,354.394958 696.955505,354.138641 677.216187,354.180267 
	C675.764221,354.183319 673.568787,356.366302 672.993286,357.988037 
	C669.952393,366.556793 667.160339,375.223907 664.607544,383.952118 
	C663.144470,388.954315 662.300049,394.137451 661.170410,399.162415 
	C661.163696,399.085663 661.317749,399.083099 661.021484,399.270050 
	C660.435486,401.295837 660.145752,403.134674 659.889954,405.217896 
	C659.805786,405.813995 659.562561,406.012207 658.934692,406.293884 
	C658.505310,407.428650 658.335388,408.326447 658.154175,409.144165 
	C658.142883,409.064117 658.304077,409.050842 658.019165,409.275146 
	C655.492188,415.667908 653.250122,421.836395 650.631104,427.922363 
	C647.551392,427.226929 644.866455,426.517029 642.142517,426.020599 
	C635.816345,424.867645 629.485779,423.723175 623.129211,422.757965 
	C618.625916,422.074127 614.084656,421.573578 609.541626,421.281769 
	C608.764221,421.231873 607.496277,422.488556 607.138184,423.407837 
	C605.972473,426.400513 603.953796,426.267365 601.165100,426.273315 
	C597.523926,426.281128 593.631958,426.985870 590.320435,428.455627 
	C587.294861,429.798431 585.805603,430.841125 584.756226,426.571716 
	C583.714966,422.335510 580.348877,420.666046 577.618286,422.096375 
	C576.453308,422.706573 574.326233,423.572937 573.918091,423.133209 
	C572.797729,421.926117 572.051086,420.147919 571.728821,418.484894 
	C571.379211,416.680145 571.674744,414.750366 571.688965,412.875122 
	C571.819519,412.020660 571.950012,411.166199 572.462097,410.039978 
	C573.154541,409.574677 573.200745,409.320221 572.982239,409.004822 
	C575.326538,400.206940 577.538269,391.370941 580.052429,382.621887 
	C582.549255,373.933136 585.350281,365.331848 588.535400,356.283386 
	C589.674744,355.197754 590.630615,354.620880 590.867615,353.828888 
	C593.560059,344.831879 596.372131,335.859802 598.665161,326.758392 
	C599.957092,321.630615 600.345276,316.275146 601.140564,311.022247 
	C603.528809,302.443115 605.917053,293.863983 608.841064,285.119141 
	C611.808289,284.639801 614.239319,284.055573 616.671082,284.052704 
	C661.535156,283.999542 706.399231,284.030426 751.263306,283.974243 
	C753.508301,283.971436 755.752441,283.340851 757.997009,283.002563 
z"/>
<path fill="#22CDDF" opacity="1.000000" stroke="none" 
	d="
M273.114349,364.020813 
	C273.088257,363.844299 273.062195,363.667816 273.438599,363.130737 
	C274.503784,361.856171 275.475464,361.035034 275.781921,360.014191 
	C279.267517,348.402832 282.658112,336.762939 286.060852,325.126770 
	C290.063446,311.439392 294.053009,297.748199 298.386963,284.284241 
	C300.031219,284.672913 301.336578,284.977875 302.642151,284.978638 
	C345.491302,285.003662 388.340485,285.009674 431.189575,284.959473 
	C432.781006,284.957611 434.371735,284.365356 436.425110,284.043152 
	C440.693909,284.216949 444.500092,284.493134 448.306976,284.502655 
	C449.199585,284.504883 450.094482,283.604950 450.988312,283.120087 
	C451.447021,283.073364 451.905731,283.026611 452.813599,283.400269 
	C454.397644,284.376251 455.483734,285.253296 456.675476,285.434113 
	C463.310028,286.440521 469.998108,287.112976 476.612091,288.229980 
	C481.237427,289.011108 485.773438,290.321045 490.349365,291.394836 
	C490.349365,291.394836 490.426208,291.305450 490.526001,291.662781 
	C492.290192,293.037964 493.954620,294.055847 495.619049,295.073730 
	C502.481964,296.506195 507.767975,300.312714 512.205139,305.646088 
	C517.241150,311.699280 523.437500,316.983978 527.515259,323.597900 
	C536.959900,338.916687 537.196411,356.119659 534.469543,373.223328 
	C532.318726,386.713867 528.836121,399.992126 525.427490,413.844055 
	C523.635376,418.261505 522.360901,422.199554 521.086426,426.137604 
	C521.086426,426.137604 521.081970,426.063965 520.758789,426.180359 
	C519.970093,427.274414 519.388000,428.214478 519.058655,429.235992 
	C517.359314,434.506622 515.724792,439.798157 513.882935,444.781128 
	C508.950989,433.989441 499.769745,433.402496 490.153870,434.135559 
	C486.569366,434.408844 483.055237,435.717102 479.474792,435.906616 
	C473.707703,436.211914 467.812927,436.635498 462.158875,435.777740 
	C457.259003,435.034454 452.172150,437.909454 447.348938,434.580536 
	C446.401184,433.926392 442.866852,435.239594 442.020966,436.585419 
	C440.208008,439.469971 438.006897,440.298737 434.966492,439.660767 
	C434.994629,438.879730 435.012085,438.433472 435.133057,437.885986 
	C435.382263,437.500275 435.327667,437.249756 435.205933,436.696472 
	C437.512299,430.174530 439.839874,424.036926 441.771790,417.777222 
	C442.413971,415.696350 442.040588,413.302094 442.189636,410.664062 
	C442.885986,407.512360 443.524231,404.747681 444.479645,401.851868 
	C445.696625,399.139313 447.137543,396.608093 447.382812,393.965912 
	C447.882294,388.586334 448.103088,383.121887 447.735718,377.740356 
	C447.464172,373.761749 447.015930,369.362610 442.483337,367.362122 
	C442.584717,367.310699 442.662689,367.524323 442.562622,367.242798 
	C442.204193,366.661224 441.945770,366.361206 441.769379,366.078369 
	C441.851410,366.095520 441.806549,366.257019 441.836243,365.879211 
	C440.861511,364.683319 439.857056,363.865234 438.630920,362.994324 
	C438.110870,362.785645 437.953217,362.539642 437.871582,361.854431 
	C436.823730,361.032135 435.840485,360.558899 434.892029,360.072937 
	C434.926849,360.060211 434.925995,360.134338 434.882996,359.816498 
	C433.551483,359.022034 432.262939,358.545410 430.716278,358.059509 
	C430.299286,357.983765 430.140411,357.917358 429.855133,357.521545 
	C425.825653,356.129700 421.938812,354.225281 418.016754,354.149689 
	C400.443695,353.811096 382.860352,354.035950 365.281250,353.953064 
	C361.565399,353.935547 359.499817,355.116425 360.114319,359.136505 
	C360.099640,359.096985 360.181152,359.118439 359.822632,359.179871 
	C359.030884,359.696869 358.380890,360.078949 358.197632,360.619263 
	C356.096283,366.815308 353.837524,372.972443 352.101074,379.272339 
	C351.035126,383.139740 350.797791,387.235565 350.185181,391.189148 
	C350.182007,391.149536 350.261139,391.157562 349.900879,391.216522 
	C348.661713,393.852570 347.782837,396.429657 346.511078,399.005981 
	C344.129150,399.919525 342.163544,400.890472 340.142761,401.728302 
	C338.784363,402.291534 337.143341,403.343872 335.985901,402.994446 
	C332.907104,402.064880 330.021667,400.494873 326.448334,398.908203 
	C324.948456,399.332764 322.494995,400.261292 319.957275,400.683533 
	C317.092804,401.160156 314.143860,401.102203 311.247467,401.420563 
	C307.553619,401.826569 303.886932,402.607208 300.187103,402.787964 
	C297.492889,402.919647 294.763977,402.341614 292.050568,402.080017 
	C283.840118,396.582520 273.978577,393.875793 270.230408,397.709503 
	C275.736633,401.349457 270.496979,404.680756 270.319397,408.734619 
	C268.238403,406.126984 266.564178,404.029083 264.897461,401.519653 
	C264.958160,399.737030 265.011322,398.365906 265.427856,396.989868 
	C270.318085,396.906067 268.207153,394.014191 267.940857,391.507751 
	C269.216370,385.553619 270.613525,380.020752 271.729675,374.431793 
	C272.413849,371.005920 272.667389,367.494049 273.114349,364.020813 
z"/>
<path fill="#15C7E3" opacity="1.000000" stroke="none" 
	d="
M487.075195,514.194092 
	C487.076630,514.484131 486.980682,514.737244 486.355530,515.205139 
	C485.736084,515.799194 485.548462,516.141541 485.360840,516.483887 
	C485.360840,516.483887 485.367523,516.322144 485.150940,516.452881 
	C484.646423,517.116333 484.358429,517.649109 484.070465,518.181824 
	C484.062836,518.497131 483.936096,518.753662 483.248474,519.172913 
	C482.584656,519.687744 482.362640,519.981140 482.140625,520.274536 
	C482.140625,520.274536 482.127167,520.106812 481.967773,520.273560 
	C481.585876,520.758789 481.363373,521.077332 481.140869,521.395874 
	C473.686218,527.934631 466.231598,534.473450 458.109863,541.108521 
	C456.989197,541.845215 456.535614,542.485596 456.082031,543.125977 
	C456.082001,543.125977 456.056274,543.043213 455.740967,543.066528 
	C454.643005,543.761963 453.860352,544.434143 453.077667,545.106323 
	C453.077667,545.106323 453.041870,545.014526 452.701965,545.047852 
	C450.777252,546.249084 449.192444,547.416992 447.607605,548.584839 
	C447.607605,548.584839 447.493683,548.694031 447.050720,548.507874 
	C445.098053,549.281616 443.588348,550.241516 442.078674,551.201477 
	C442.078674,551.201477 442.088318,551.104736 441.752960,551.103333 
	C439.542145,552.270996 437.666718,553.440125 435.791260,554.609192 
	C435.791260,554.609192 435.362274,554.790588 434.862915,554.533569 
	C427.385345,556.314575 420.403900,558.342102 413.452423,560.467529 
	C413.315094,560.509460 413.528839,561.699585 413.578766,562.354004 
	C404.288788,564.101624 394.998779,565.849182 384.948120,567.472168 
	C382.208069,567.226685 380.229095,567.008118 378.249237,567.000305 
	C361.481812,566.934387 344.714264,566.906860 327.877930,566.536499 
	C324.513397,563.227966 317.747437,563.557678 313.708130,566.892822 
	C312.892700,566.896118 312.426514,566.881897 311.843079,566.528870 
	C309.986115,565.461060 308.300476,564.324829 306.495789,564.085144 
	C302.299194,563.528015 298.004974,563.669556 293.824188,563.038513 
	C288.013062,562.161316 282.363281,559.545654 276.366089,562.528625 
	C275.288666,563.064514 273.542816,562.166687 272.096100,562.065247 
	C265.041748,561.570862 257.821136,559.961304 250.965393,560.924500 
	C240.229507,562.432800 230.137909,561.054077 220.034180,557.609741 
	C224.258194,541.608521 228.455917,525.995117 232.689850,510.391602 
	C234.280289,504.530334 235.880386,498.669678 237.612381,492.849335 
	C239.299057,487.181213 241.160034,481.564972 243.234131,476.160156 
	C245.504990,477.830048 247.470673,479.287842 249.473465,480.692780 
	C250.618210,481.495758 251.786102,482.796326 253.007187,482.874115 
	C261.186707,483.395355 269.455963,484.427032 277.545135,483.673248 
	C281.866577,483.270538 287.112061,484.571136 290.916412,480.660797 
	C291.333160,480.232452 292.749237,480.864746 293.698975,480.847748 
	C295.555206,480.814575 297.456879,480.899811 299.255402,480.527954 
	C304.191162,479.507263 309.322083,476.386322 313.350861,482.351746 
	C313.414978,482.446747 313.927582,482.238831 314.368011,482.142181 
	C314.146484,480.991272 313.927917,479.855713 313.762482,478.996368 
	C317.090363,478.996368 320.061188,478.996368 323.029785,479.325623 
	C323.335236,480.438385 323.642944,481.221893 323.993958,482.290039 
	C323.855377,483.097443 323.673492,483.620239 323.199829,484.060425 
	C319.887329,485.505066 319.653351,487.524139 321.866028,490.341003 
	C321.254791,493.786285 320.627594,496.862823 320.319977,500.204834 
	C322.443420,500.651001 324.246948,500.984802 326.051147,500.988556 
	C343.037689,501.023682 360.024353,501.002502 377.370209,501.027893 
	C378.574188,501.754395 379.341156,502.591553 380.283325,503.111115 
	C381.470276,503.765717 382.800323,504.160919 384.068634,504.667999 
	C384.488892,503.561401 384.917297,502.457825 385.326355,501.347137 
	C385.573456,500.676086 385.790649,499.994049 386.011902,499.344482 
	C388.060669,501.172424 389.824951,502.746521 391.589203,504.320648 
	C391.786652,502.087952 391.984100,499.855255 392.186279,497.569000 
	C397.578827,496.597046 397.900604,496.811554 399.134949,502.366180 
	C400.777802,502.285614 403.104004,501.468079 403.949982,502.250671 
	C408.569153,506.523682 409.832825,503.074738 410.693329,500.105835 
	C419.898651,500.404724 428.577454,500.732269 437.259277,500.918030 
	C438.527344,500.945190 439.801025,500.256683 441.088013,499.971008 
	C442.524841,499.652008 444.637085,498.662659 445.322571,499.261627 
	C450.609131,503.880829 455.609863,502.179688 461.506409,500.220978 
	C467.439087,498.250244 474.188324,498.886536 480.350555,497.418427 
	C487.257385,495.772888 487.826233,495.655609 489.885925,502.322784 
	C490.173370,503.253235 490.654510,504.123901 491.096680,505.431946 
	C491.335846,506.357422 491.524292,506.873169 491.712769,507.388916 
	C491.712799,507.388916 491.733856,507.589447 491.290314,507.553436 
	C490.231079,508.365906 489.615356,509.214386 489.028839,510.342163 
	C489.089996,510.805939 489.121979,510.990387 489.153992,511.174866 
	C489.153992,511.174866 489.138062,511.096130 488.958588,511.251099 
	C488.592773,511.710114 488.406403,512.014160 488.220062,512.318176 
	C488.220062,512.318176 488.212006,512.158447 488.020935,512.331665 
	C487.578308,513.067932 487.326752,513.631042 487.075195,514.194092 
z"/>
<path fill="#18CAE2" opacity="1.000000" stroke="none" 
	d="
M744.914795,448.980957 
	C757.528564,449.308289 770.140808,449.754761 782.756714,449.914093 
	C789.331299,449.997131 795.911438,449.511505 802.490906,449.429504 
	C803.916748,449.411713 805.346558,450.268799 806.781372,450.291687 
	C809.588684,450.336456 812.518677,450.526978 815.181152,449.829590 
	C818.461853,448.970215 821.343689,448.256317 823.871765,452.199829 
	C823.075500,458.396271 822.089539,463.858276 821.103638,469.320312 
	C821.103638,469.320312 821.171692,469.676880 820.814209,469.990417 
	C820.265747,471.528076 820.074829,472.752228 819.883911,473.976379 
	C814.039001,491.217926 805.523560,506.963196 793.249634,520.919556 
	C792.861145,521.018799 792.723816,521.088989 792.723816,521.088989 
	C792.723816,521.088989 792.928955,521.328918 792.928955,521.328918 
	C792.928955,521.328918 792.882996,521.665222 792.438599,521.732666 
	C791.690491,522.244507 791.386719,522.688965 791.083008,523.133423 
	C791.083008,523.133423 791.058411,523.035278 790.896118,523.199951 
	C790.500122,523.645264 790.266418,523.925842 790.032776,524.206421 
	C790.032776,524.206421 790.026062,524.025818 789.896240,524.196533 
	C789.536499,524.656067 789.306519,524.944885 789.076538,525.233643 
	C788.310425,526.115173 787.544312,526.996643 786.192871,527.928589 
	C785.402161,527.935669 785.196838,527.892212 784.987915,527.467407 
	C783.764221,520.371094 782.188599,519.749023 776.653442,523.797058 
	C770.696228,528.153748 765.918579,528.192932 759.717651,523.957031 
	C759.320618,523.685852 758.802124,523.299866 758.405701,523.365234 
	C753.746033,524.133179 749.101685,524.993958 744.446899,525.792786 
	C742.697693,526.093018 740.760620,526.891174 739.203003,526.442383 
	C732.005615,524.368652 724.057861,527.476135 717.204651,523.160339 
	C716.611328,522.786743 715.574280,523.135132 714.744019,523.117554 
	C705.525208,522.922119 696.307007,522.687378 687.087341,522.552612 
	C685.511536,522.529541 683.924316,522.891418 682.351868,523.136780 
	C680.002319,523.503479 677.647522,524.322388 675.319336,524.242065 
	C669.969971,524.057434 664.633057,523.089783 659.295410,523.124084 
	C655.227905,523.150146 651.178589,524.322083 647.100891,524.816772 
	C639.388733,525.752441 631.668579,522.456238 623.928162,524.790039 
	C623.402100,524.948669 622.519043,524.646240 622.078186,524.250488 
	C618.474487,521.015808 614.416382,521.974304 610.259766,522.641785 
	C607.213318,523.130981 604.079773,523.242188 600.986572,523.227112 
	C598.258545,523.213867 595.523193,522.511292 592.807190,522.601074 
	C582.378296,522.946045 571.956421,523.500732 561.529968,523.929138 
	C560.726746,523.962097 559.912048,523.504211 559.096008,523.477600 
	C556.744324,523.400635 554.317688,523.062805 552.053711,523.506836 
	C549.246765,524.057373 547.512329,523.768127 547.042542,520.581909 
	C546.415710,516.330688 545.652283,512.099670 544.947510,507.859924 
	C545.653015,505.167999 546.358521,502.476074 547.482788,499.252197 
	C549.819458,493.313751 552.169373,488.012329 553.517517,482.467377 
	C554.582520,478.086792 556.832581,475.460266 561.042847,475.071228 
	C567.467041,474.477570 574.021912,473.654938 580.377197,474.315613 
	C592.069275,475.531158 603.655701,475.753815 615.237122,473.839233 
	C619.073975,473.204926 622.943115,472.318085 626.557556,470.924438 
	C629.560242,469.766663 630.221497,470.846161 631.071777,473.393219 
	C632.069702,476.382599 633.719116,479.154449 635.058350,482.422241 
	C634.363647,486.250458 633.696533,489.677155 633.017700,493.487549 
	C632.706360,495.819855 632.406616,497.768433 632.226074,499.970093 
	C632.579285,500.509430 632.813232,500.795685 633.148071,501.176331 
	C633.248901,501.270752 633.638489,501.308624 633.638489,501.308624 
	C633.638489,501.308624 633.962646,501.065765 634.433472,501.054016 
	C651.280701,501.042267 667.656982,501.042267 684.299072,501.250488 
	C686.040283,501.317688 687.515747,501.176666 688.980225,500.738342 
	C688.948364,500.243744 688.927612,500.046478 688.917114,499.887024 
	C688.927307,499.924835 688.851562,499.904999 689.237976,499.945557 
	C692.793518,500.620270 695.812317,500.730194 697.899048,497.699646 
	C697.892761,497.787781 697.718079,497.761078 698.115723,497.828278 
	C699.636841,497.417206 700.760254,496.938934 702.156921,496.256012 
	C705.626587,494.735840 708.822937,493.420258 712.146240,492.176422 
	C712.577759,492.268341 712.776001,492.107422 712.867920,491.808289 
	C712.867981,491.851227 712.783020,491.839081 713.169495,491.865540 
	C715.337830,490.491943 717.119690,489.091949 718.968689,487.483276 
	C719.247620,487.041443 719.510803,486.934021 720.174500,486.913452 
	C721.223999,486.069458 721.924316,485.264313 722.632935,484.546631 
	C722.641174,484.634155 722.466064,484.619141 722.817993,484.576660 
	C723.868408,483.510620 724.566772,482.487030 725.278992,481.410706 
	C725.292847,481.357941 725.397461,481.326996 725.696899,481.295044 
	C726.315674,480.797211 726.634949,480.331299 727.035461,479.605530 
	C727.643738,478.865326 728.170837,478.385010 729.055176,477.801331 
	C731.701111,476.726227 733.540100,475.499908 732.332642,472.509308 
	C732.336487,472.471954 732.398438,472.429565 732.765198,472.414551 
	C733.708984,471.200867 734.285950,470.002258 734.885254,468.871826 
	C734.907532,468.940002 734.769226,468.978180 734.937866,468.770447 
	C735.216980,468.227478 735.327393,467.892303 735.366394,467.494385 
	C735.294983,467.431641 735.390320,467.267181 735.733765,467.248322 
	C736.489563,466.036072 736.901978,464.842651 737.248718,463.506714 
	C737.183105,463.364197 737.438843,463.182251 737.786987,463.280151 
	C738.821167,462.619995 739.773987,461.973999 740.147522,461.084717 
	C741.826599,457.087891 743.341064,453.021973 744.914795,448.980957 
z"/>
<path fill="#12C6E3" opacity="1.000000" stroke="none" 
	d="
M544.653931,508.140564 
	C545.652283,512.099670 546.415710,516.330688 547.042542,520.581909 
	C547.512329,523.768127 549.246765,524.057373 552.053711,523.506836 
	C554.317688,523.062805 556.744324,523.400635 559.096008,523.477600 
	C559.912048,523.504211 560.726746,523.962097 561.529968,523.929138 
	C571.956421,523.500732 582.378296,522.946045 592.807190,522.601074 
	C595.523193,522.511292 598.258545,523.213867 600.986572,523.227112 
	C604.079773,523.242188 607.213318,523.130981 610.259766,522.641785 
	C614.416382,521.974304 618.474487,521.015808 622.078186,524.250488 
	C622.519043,524.646240 623.402100,524.948669 623.928162,524.790039 
	C631.668579,522.456238 639.388733,525.752441 647.100891,524.816772 
	C651.178589,524.322083 655.227905,523.150146 659.295410,523.124084 
	C664.633057,523.089783 669.969971,524.057434 675.319336,524.242065 
	C677.647522,524.322388 680.002319,523.503479 682.351868,523.136780 
	C683.924316,522.891418 685.511536,522.529541 687.087341,522.552612 
	C696.307007,522.687378 705.525208,522.922119 714.744019,523.117554 
	C715.574280,523.135132 716.611328,522.786743 717.204651,523.160339 
	C724.057861,527.476135 732.005615,524.368652 739.203003,526.442383 
	C740.760620,526.891174 742.697693,526.093018 744.446899,525.792786 
	C749.101685,524.993958 753.746033,524.133179 758.405701,523.365234 
	C758.802124,523.299866 759.320618,523.685852 759.717651,523.957031 
	C765.918579,528.192932 770.696228,528.153748 776.653442,523.797058 
	C782.188599,519.749023 783.764221,520.371094 784.781616,527.721252 
	C784.410767,528.971558 784.242615,529.586609 784.074524,530.201721 
	C783.610779,530.759460 783.146973,531.317200 782.104919,531.993103 
	C780.997070,532.421448 780.467407,532.731506 779.797791,533.250366 
	C779.611816,533.788452 779.565857,534.117615 779.519836,534.446838 
	C779.519836,534.446838 779.479370,534.221985 779.207886,534.389648 
	C778.668091,534.794373 778.399841,535.031433 778.131531,535.268494 
	C778.131531,535.268494 778.135437,535.178650 777.811096,535.163025 
	C776.039917,536.496765 774.593079,537.846191 773.146301,539.195618 
	C773.146301,539.195618 773.091248,539.090820 772.768005,539.102783 
	C771.333496,540.124207 770.222229,541.133728 769.110962,542.143311 
	C769.110962,542.143250 769.049500,542.024902 768.743164,542.066528 
	C767.657776,542.786194 766.878845,543.464111 766.099854,544.142090 
	C766.099854,544.142090 766.064087,544.040894 765.728333,544.066528 
	C763.975342,545.121521 762.558044,546.150879 761.140747,547.180176 
	C761.140747,547.180176 761.058838,547.044739 760.727539,547.080139 
	C759.130981,547.471069 757.828857,547.730164 756.606262,548.197144 
	C745.824951,552.315247 735.162537,556.779663 724.240295,560.478149 
	C719.104370,562.217346 713.468689,562.460876 708.073975,563.460510 
	C702.040405,564.578430 696.023315,565.785217 689.530640,566.963867 
	C665.446472,566.978027 641.830505,566.949890 618.215088,567.041626 
	C616.182434,567.049500 614.152954,567.852661 612.122009,568.286438 
	C608.390503,580.690796 604.694641,593.105957 600.912720,605.494934 
	C598.953247,611.913513 596.841125,618.285461 594.447815,624.475464 
	C595.174744,619.393066 596.251831,614.513672 597.260925,609.942139 
	C586.532410,609.085327 576.171997,608.136292 565.793335,607.472534 
	C559.043518,607.040771 552.261475,606.750549 545.504211,606.892517 
	C537.300110,607.064941 529.092529,607.604004 520.921570,608.362000 
	C519.344177,608.508301 517.006165,610.117310 516.582397,611.522949 
	C512.842712,623.925232 509.456390,636.434082 505.765747,649.153625 
	C504.767914,650.235291 503.969879,651.074707 503.171844,651.914062 
	C514.757385,611.533875 526.342102,571.153503 537.929321,530.773804 
	C540.067749,523.321472 542.216431,515.872009 544.653931,508.140564 
M579.262695,574.118713 
	C572.966736,574.412354 566.546814,575.622620 560.402954,574.791626 
	C550.381226,573.436157 538.955933,578.081787 529.698730,566.835022 
	C526.504272,578.172119 523.694763,588.143066 520.850220,598.238281 
	C525.095032,599.245850 528.116516,600.505005 531.164978,600.574158 
	C537.566528,600.719482 543.991882,599.901489 550.390198,600.084106 
	C565.298584,600.509583 580.194397,601.372864 595.102478,601.816162 
	C596.705322,601.863892 599.297485,600.706970 599.828369,599.438354 
	C602.856995,592.201233 605.399719,584.760803 608.237854,577.034729 
	C604.813049,576.310852 602.126160,575.434326 599.388489,575.226257 
	C592.991516,574.740173 586.570190,574.575073 579.262695,574.118713 
M518.288391,605.796265 
	C518.466858,605.719482 518.661194,605.664001 518.812988,605.551270 
	C518.852112,605.522217 518.757874,605.313293 518.724854,605.187012 
	C518.557739,605.293518 518.390564,605.400085 518.288391,605.796265 
z"/>
<path fill="#1BCBE2" opacity="1.000000" stroke="none" 
	d="
M635.085938,482.020630 
	C633.719116,479.154449 632.069702,476.382599 631.071777,473.393219 
	C630.221497,470.846161 629.560242,469.766663 626.557556,470.924438 
	C622.943115,472.318085 619.073975,473.204926 615.237122,473.839233 
	C603.655701,475.753815 592.069275,475.531158 580.377197,474.315613 
	C574.021912,473.654938 567.467041,474.477570 561.042847,475.071228 
	C556.832581,475.460266 554.582520,478.086792 553.517517,482.467377 
	C552.169373,488.012329 549.819458,493.313751 547.593994,498.857117 
	C554.983887,471.566833 562.683899,444.140350 570.369995,416.709961 
	C570.678711,415.608185 570.856018,414.469604 571.391724,413.111664 
	C571.674744,414.750366 571.379211,416.680145 571.728821,418.484894 
	C572.051086,420.147919 572.797729,421.926117 573.918091,423.133209 
	C574.326233,423.572937 576.453308,422.706573 577.618286,422.096375 
	C580.348877,420.666046 583.714966,422.335510 584.756226,426.571716 
	C585.805603,430.841125 587.294861,429.798431 590.320435,428.455627 
	C593.631958,426.985870 597.523926,426.281128 601.165100,426.273315 
	C603.953796,426.267365 605.972473,426.400513 607.138184,423.407837 
	C607.496277,422.488556 608.764221,421.231873 609.541626,421.281769 
	C614.084656,421.573578 618.625916,422.074127 623.129211,422.757965 
	C629.485779,423.723175 635.816345,424.867645 642.142517,426.020599 
	C644.866455,426.517029 647.551392,427.226929 650.609375,428.303711 
	C648.836304,436.397339 646.826294,444.062561 644.550537,451.648041 
	C641.503479,461.804565 638.250549,471.899323 635.085938,482.020630 
z"/>
<path fill="#007BC7" opacity="1.000000" stroke="none" 
	d="
M572.980225,692.067627 
	C545.286865,710.039551 517.591980,728.009277 489.901367,745.985535 
	C484.772644,749.314941 479.661041,752.670837 473.241669,756.863586 
	C480.448792,732.002686 487.285339,708.419922 494.655457,684.336243 
	C496.771545,679.720093 498.354065,675.604858 499.460419,672.727966 
	C510.039490,673.180237 520.003113,673.901611 529.970093,673.951843 
	C540.584900,674.005188 551.201782,673.373596 561.820007,673.139832 
	C567.216797,673.020996 572.618408,673.119019 578.208557,673.119019 
	C577.569458,677.220337 576.868713,681.716980 576.168030,686.213623 
	C576.168030,686.213623 576.108826,686.057068 575.906433,686.285645 
	C575.507263,687.730774 575.310425,688.947266 575.113647,690.163818 
	C575.113647,690.163818 575.080017,690.060852 574.899170,690.203918 
	C574.502502,690.649597 574.286804,690.952209 574.071045,691.254822 
	C574.071045,691.254822 574.013672,691.089294 573.872314,691.204102 
	C573.480713,691.568481 573.230469,691.818054 572.980225,692.067627 
z"/>
<path fill="#04A5D8" opacity="1.000000" stroke="none" 
	d="
M505.965576,648.911377 
	C509.456390,636.434082 512.842712,623.925232 516.582397,611.522949 
	C517.006165,610.117310 519.344177,608.508301 520.921570,608.362000 
	C529.092529,607.604004 537.300110,607.064941 545.504211,606.892517 
	C552.261475,606.750549 559.043518,607.040771 565.793335,607.472534 
	C576.171997,608.136292 586.532410,609.085327 597.260925,609.942139 
	C596.251831,614.513672 595.174744,619.393066 594.157043,624.698608 
	C594.216431,625.124634 594.190552,625.056213 593.947876,625.223633 
	C592.178711,630.796021 590.652100,636.200867 589.125549,641.605774 
	C586.689209,650.594177 584.252869,659.582642 581.509277,668.437500 
	C581.421997,666.510742 581.428894,664.659241 581.900269,662.934631 
	C583.615051,656.660278 582.663086,655.159729 576.060974,655.059875 
	C569.131348,654.955078 562.196106,655.088501 555.265503,655.226929 
	C545.188904,655.428162 535.115234,655.869751 525.038574,655.935791 
	C517.883301,655.982727 511.638519,653.115784 505.965576,648.911377 
z"/>
<path fill="#008FD0" opacity="1.000000" stroke="none" 
	d="
M182.949524,681.982666 
	C185.001053,674.577271 187.052582,667.171814 189.658478,659.288452 
	C190.709732,656.443542 191.206604,654.076721 191.703491,651.709839 
	C191.703491,651.709839 191.725601,651.864807 191.983444,651.696777 
	C193.758774,647.916260 195.276276,644.303650 196.897598,640.443909 
	C199.268921,641.281067 201.532623,642.596375 203.901520,642.825806 
	C213.312653,643.737427 222.752548,644.813599 232.189438,644.890503 
	C246.457260,645.006714 260.731476,644.339111 275.001495,644.002319 
	C275.000000,644.000000 274.995850,643.997131 274.985901,644.405151 
	C274.289093,649.536682 273.602203,654.260254 272.915283,658.983826 
	C270.977356,665.741211 269.039398,672.498657 266.846680,679.822388 
	C266.412231,680.679688 266.337616,680.995483 266.368011,681.336182 
	C266.368011,681.336182 266.393280,681.338013 266.066101,681.346680 
	C265.157440,681.905151 264.575989,682.455017 263.997070,683.002441 
	C263.999603,683.000000 264.004883,682.995117 263.597290,683.071899 
	C256.146393,684.096558 249.110092,685.759766 242.058212,685.828674 
	C230.767563,685.939087 219.563675,688.141663 208.133545,686.212830 
	C201.380035,685.073181 194.214371,686.643677 187.793182,682.863098 
	C186.465958,682.081604 184.578674,682.251343 182.949524,681.982666 
z"/>
<path fill="#007BC7" opacity="1.000000" stroke="none" 
	d="
M182.754166,682.271606 
	C184.578674,682.251343 186.465958,682.081604 187.793182,682.863098 
	C194.214371,686.643677 201.380035,685.073181 208.133545,686.212830 
	C219.563675,688.141663 230.767563,685.939087 242.058212,685.828674 
	C249.110092,685.759766 256.146393,684.096558 263.574036,683.436951 
	C264.153595,685.245117 264.348816,686.765076 264.544006,688.285034 
	C263.866364,689.330444 263.188721,690.375854 262.066864,691.517151 
	C261.291168,691.654724 261.062073,691.845154 260.935333,692.184326 
	C238.369934,706.825073 215.813904,721.480286 193.234863,736.099915 
	C182.964127,742.750122 172.647919,749.330078 161.202148,756.680542 
	C167.587936,734.534485 173.626526,713.592529 180.136017,692.252441 
	C180.639053,691.186768 180.671158,690.519348 180.703278,689.851868 
	C180.703278,689.851868 180.792984,689.402466 181.200043,689.128113 
	C181.706879,687.890381 181.806656,686.926941 181.906433,685.963562 
	C182.123901,684.829224 182.341370,683.694946 182.754166,682.271606 
z"/>
<path fill="#0BBADF" opacity="1.000000" stroke="none" 
	d="
M220.022308,558.001526 
	C230.137909,561.054077 240.229507,562.432800 250.965393,560.924500 
	C257.821136,559.961304 265.041748,561.570862 272.096100,562.065247 
	C273.542816,562.166687 275.288666,563.064514 276.366089,562.528625 
	C282.363281,559.545654 288.013062,562.161316 293.824188,563.038513 
	C298.004974,563.669556 302.299194,563.528015 306.495789,564.085144 
	C308.300476,564.324829 309.986115,565.461060 311.388794,566.553101 
	C307.444244,567.312927 303.836731,567.709717 300.229248,568.106506 
	C297.702393,576.422974 295.188110,584.743347 292.644989,593.054810 
	C290.385742,600.438599 288.094391,607.812561 285.519379,615.059082 
	C286.443268,609.787170 287.636810,604.640076 288.894409,599.508728 
	C290.236816,594.031128 289.581055,593.128784 283.796448,593.013611 
	C273.218689,592.802979 262.640594,592.571960 252.061493,592.478516 
	C243.142166,592.399780 234.172943,593.064880 225.320343,592.302673 
	C220.534180,591.890564 214.243622,594.552734 211.222534,587.681519 
	C213.235687,579.845093 215.128891,572.356140 217.271027,564.643555 
	C218.354080,562.280396 219.188202,560.140930 220.022308,558.001526 
z"/>
<path fill="#09B3DD" opacity="1.000000" stroke="none" 
	d="
M211.102585,588.029053 
	C214.243622,594.552734 220.534180,591.890564 225.320343,592.302673 
	C234.172943,593.064880 243.142166,592.399780 252.061493,592.478516 
	C262.640594,592.571960 273.218689,592.802979 283.796448,593.013611 
	C289.581055,593.128784 290.236816,594.031128 288.894409,599.508728 
	C287.636810,604.640076 286.443268,609.787170 285.290466,615.387817 
	C284.162323,620.204956 282.965240,624.561646 281.428101,628.732056 
	C281.510742,625.536865 281.933441,622.527954 282.338226,619.646790 
	C269.350769,619.646790 256.945892,619.742615 244.543396,619.614197 
	C235.799850,619.523560 227.038940,619.405457 218.325714,618.760376 
	C213.497070,618.402954 208.750488,616.937195 203.981018,615.568787 
	C206.331161,606.444397 208.667221,597.722168 211.025513,588.756958 
	C211.047745,588.513977 211.102585,588.029053 211.102585,588.029053 
z"/>
<path fill="#04A5D8" opacity="1.000000" stroke="none" 
	d="
M203.966919,615.971008 
	C208.750488,616.937195 213.497070,618.402954 218.325714,618.760376 
	C227.038940,619.405457 235.799850,619.523560 244.543396,619.614197 
	C256.945892,619.742615 269.350769,619.646790 282.338226,619.646790 
	C281.933441,622.527954 281.510742,625.536865 281.130432,628.972412 
	C281.172882,629.399109 281.263580,629.693848 280.959961,630.061890 
	C280.540131,631.056091 280.423920,631.682373 280.307739,632.308594 
	C280.307739,632.308594 280.283966,632.119446 280.062225,632.339539 
	C279.615265,633.775513 279.390076,634.991333 279.164856,636.207214 
	C279.164856,636.207214 279.132019,636.063721 278.929932,636.292480 
	C278.581604,637.446289 278.435333,638.371277 278.289062,639.296326 
	C278.289062,639.296326 278.282440,639.136719 278.093445,639.282593 
	C277.897827,640.277405 277.891235,641.126465 277.884644,641.975464 
	C276.306519,647.404175 274.728394,652.832947 273.032776,658.622742 
	C273.602203,654.260254 274.289093,649.536682 275.059906,644.368286 
	C275.143829,643.923462 275.158508,643.738403 275.158508,643.738403 
	C275.158508,643.738403 275.002991,644.004517 275.002991,644.004517 
	C260.731476,644.339111 246.457260,645.006714 232.189438,644.890503 
	C222.752548,644.813599 213.312653,643.737427 203.901520,642.825806 
	C201.532623,642.596375 199.268921,641.281067 196.897598,640.443909 
	C195.276276,644.303650 193.758774,647.916260 191.905182,651.698730 
	C193.114380,646.271912 194.659698,640.675171 196.676331,634.963257 
	C197.771637,633.918213 198.644043,633.069275 198.977966,632.044861 
	C200.716431,626.711487 202.317810,621.333496 203.966919,615.971008 
M197.503342,637.533325 
	C197.503342,637.533325 197.488113,637.489075 197.503342,637.533325 
z"/>
<path fill="#008FD0" opacity="1.000000" stroke="none" 
	d="
M505.765747,649.153625 
	C511.638519,653.115784 517.883301,655.982727 525.038574,655.935791 
	C535.115234,655.869751 545.188904,655.428162 555.265503,655.226929 
	C562.196106,655.088501 569.131348,654.955078 576.060974,655.059875 
	C582.663086,655.159729 583.615051,656.660278 581.900269,662.934631 
	C581.428894,664.659241 581.421997,666.510742 581.285461,668.721313 
	C581.368958,669.138672 581.331238,669.078857 581.111328,669.215210 
	C580.896057,669.887207 580.900635,670.422974 580.905273,670.958679 
	C579.522156,675.886230 578.138977,680.813782 576.461914,685.977417 
	C576.868713,681.716980 577.569458,677.220337 578.208557,673.119019 
	C572.618408,673.119019 567.216797,673.020996 561.820007,673.139832 
	C551.201782,673.373596 540.584900,674.005188 529.970093,673.951843 
	C520.003113,673.901611 510.039490,673.180237 499.460419,672.727966 
	C498.354065,675.604858 496.771545,679.720093 494.923645,684.138794 
	C497.327820,675.220703 499.997437,665.998962 502.983063,656.230225 
	C503.224915,654.790894 503.150696,653.898499 503.076477,653.006165 
	C503.056610,652.821228 503.036713,652.636292 503.094360,652.182739 
	C503.969879,651.074707 504.767914,650.235291 505.765747,649.153625 
z"/>
<path fill="#21E4EF" opacity="1.000000" stroke="none" 
	d="
M298.048218,284.058655 
	C294.053009,297.748199 290.063446,311.439392 286.060852,325.126770 
	C282.658112,336.762939 279.267517,348.402832 275.781921,360.014191 
	C275.475464,361.035034 274.503784,361.856171 273.513367,362.873779 
	C280.490906,337.771606 287.852692,312.581787 295.036560,287.341370 
	C296.038177,283.822235 297.457886,282.482697 301.388611,282.496521 
	C345.631317,282.652008 389.874847,282.555634 434.118164,282.573364 
	C439.434937,282.575500 444.751617,282.851776 450.528320,283.060547 
	C450.094482,283.604950 449.199585,284.504883 448.306976,284.502655 
	C444.500092,284.493134 440.693909,284.216949 435.961121,284.031799 
	C389.372589,284.036530 343.710419,284.047607 298.048218,284.058655 
z"/>
<path fill="#21E4EF" opacity="1.000000" stroke="none" 
	d="
M220.034180,557.609741 
	C219.188202,560.140930 218.354080,562.280396 217.254349,564.354492 
	C216.952072,564.098450 216.915421,563.907654 216.878784,563.716919 
	C219.742981,552.607605 222.388947,541.436646 225.510971,530.400208 
	C236.302887,492.250610 247.257248,454.146942 258.156860,416.027802 
	C263.046997,398.925537 267.953918,381.828064 272.983765,364.374634 
	C272.667389,367.494049 272.413849,371.005920 271.729675,374.431793 
	C270.613525,380.020752 269.216370,385.553619 267.626923,391.630035 
	C266.565521,393.764893 265.815002,395.379852 265.064453,396.994812 
	C265.011322,398.365906 264.958160,399.737030 264.573090,401.675781 
	C263.795624,403.267548 263.219482,404.255432 262.924286,405.321106 
	C258.997467,419.497375 255.172821,433.702179 251.190659,447.862732 
	C248.551392,457.247925 245.700592,466.573608 242.944489,475.925934 
	C241.160034,481.564972 239.299057,487.181213 237.612381,492.849335 
	C235.880386,498.669678 234.280289,504.530334 232.689850,510.391602 
	C228.455917,525.995117 224.258194,541.608521 220.034180,557.609741 
z"/>
<path fill="#21E4EF" opacity="1.000000" stroke="none" 
	d="
M821.411560,469.114197 
	C822.089539,463.858276 823.075500,458.396271 824.065247,452.513062 
	C824.991272,450.625336 826.309265,449.273132 826.771362,447.673645 
	C829.752869,437.354462 832.543274,426.980103 835.404358,416.626007 
	C837.778992,408.032135 840.143738,399.435425 842.568542,390.855682 
	C842.914185,389.632690 843.574280,388.498566 844.403870,387.176453 
	C837.052429,414.322388 829.385986,441.615204 821.411560,469.114197 
z"/>
<path fill="#21E4EF" opacity="1.000000" stroke="none" 
	d="
M757.553650,282.840210 
	C755.752441,283.340851 753.508301,283.971436 751.263306,283.974243 
	C706.399231,284.030426 661.535156,283.999542 616.671082,284.052704 
	C614.239319,284.055573 611.808289,284.639801 609.104980,284.840271 
	C610.187439,284.022064 611.540710,282.703125 612.896362,282.700745 
	C660.967529,282.616669 709.038940,282.655945 757.553650,282.840210 
z"/>
<path fill="#18CAE2" opacity="1.000000" stroke="none" 
	d="
M689.999084,566.953308 
	C696.023315,565.785217 702.040405,564.578430 708.073975,563.460510 
	C713.468689,562.460876 719.104370,562.217346 724.240295,560.478149 
	C735.162537,556.779663 745.824951,552.315247 756.606262,548.197144 
	C757.828857,547.730164 759.130981,547.471069 760.784424,547.135132 
	C745.741455,556.473267 729.059448,562.325317 711.273315,565.065063 
	C704.479309,566.111511 697.661438,567.003174 690.430115,567.691895 
	C690.005798,567.418457 689.999084,566.953308 689.999084,566.953308 
z"/>
<path fill="#12C6E3" opacity="1.000000" stroke="none" 
	d="
M203.981003,615.568787 
	C202.317810,621.333496 200.716431,626.711487 198.977966,632.044861 
	C198.644043,633.069275 197.771637,633.918213 196.920334,634.663330 
	C200.959473,619.152100 205.225937,603.825745 209.872742,588.415833 
	C210.503143,588.554932 210.753204,588.777466 211.003265,589.000000 
	C208.667221,597.722168 206.331161,606.444397 203.981003,615.568787 
z"/>
<path fill="#21E4EF" opacity="1.000000" stroke="none" 
	d="
M300.682251,568.092407 
	C303.836731,567.709717 307.444244,567.312927 311.506042,566.891968 
	C312.426514,566.881897 312.892700,566.896118 314.165680,566.917358 
	C319.297241,566.905457 323.622009,566.886597 327.946747,566.867798 
	C344.714264,566.906860 361.481812,566.934387 378.249237,567.000305 
	C380.229095,567.008118 382.208069,567.226685 384.544617,567.534302 
	C369.782135,567.836914 354.662628,567.989441 339.542786,568.057495 
	C326.740479,568.115112 313.937775,568.075073 300.682251,568.092407 
z"/>
<path fill="#21E4EF" opacity="1.000000" stroke="none" 
	d="
M601.030518,311.386749 
	C600.345276,316.275146 599.957092,321.630615 598.665161,326.758392 
	C596.372131,335.859802 593.560059,344.831879 590.867615,353.828888 
	C590.630615,354.620880 589.674744,355.197754 588.701660,355.922241 
	C592.540527,341.230347 596.730530,326.490784 601.030518,311.386749 
z"/>
<path fill="#21E4EF" opacity="1.000000" stroke="none" 
	d="
M689.530640,566.963867 
	C689.999084,566.953308 690.005798,567.418457 689.994507,567.650757 
	C664.329712,567.957275 638.676208,568.031433 612.572327,568.196045 
	C614.152954,567.852661 616.182434,567.049500 618.215088,567.041626 
	C641.830505,566.949890 665.446472,566.978027 689.530640,566.963867 
z"/>
<path fill="#21E4EF" opacity="1.000000" stroke="none" 
	d="
M514.067688,445.082397 
	C515.724792,439.798157 517.359314,434.506622 519.058655,429.235992 
	C519.388000,428.214478 519.970093,427.274414 520.795044,426.187012 
	C518.658997,435.513733 516.194946,444.958771 513.650269,454.381989 
	C512.797180,457.541290 511.738403,460.645050 510.417145,463.917358 
	C510.060669,464.060516 509.969116,463.977142 509.973145,463.570190 
	C511.340698,457.136322 512.704163,451.109344 514.067688,445.082397 
z"/>
<path fill="#21E4EF" opacity="1.000000" stroke="none" 
	d="
M510.106323,464.102325 
	C505.654907,475.778076 501.160828,487.413208 496.652252,499.042725 
	C496.416016,499.652100 496.056580,500.213745 495.412354,500.933411 
	C495.070251,501.069244 494.972382,500.980865 494.992310,500.598358 
	C495.220734,499.419067 495.352264,498.592316 495.649231,497.829987 
	C499.895996,486.928345 504.152405,476.030396 508.468750,465.156250 
	C508.671600,464.645203 509.455688,464.364899 509.969116,463.977142 
	C509.969116,463.977142 510.060669,464.060516 510.106323,464.102325 
z"/>
<path fill="#21E4EF" opacity="1.000000" stroke="none" 
	d="
M490.056305,291.204102 
	C485.773438,290.321045 481.237427,289.011108 476.612091,288.229980 
	C469.998108,287.112976 463.310028,286.440521 456.675476,285.434113 
	C455.483734,285.253296 454.397644,284.376251 453.142792,283.513519 
	C465.619843,284.160553 478.049225,285.903717 490.056305,291.204102 
z"/>
<path fill="#21E4EF" opacity="1.000000" stroke="none" 
	d="
M413.946533,562.270752 
	C413.528839,561.699585 413.315094,560.509460 413.452423,560.467529 
	C420.403900,558.342102 427.385345,556.314575 434.754913,554.327271 
	C428.202301,556.981140 421.258301,559.584351 413.946533,562.270752 
z"/>
<path fill="#18CAE2" opacity="1.000000" stroke="none" 
	d="
M211.025497,588.756958 
	C210.753204,588.777466 210.503143,588.554932 210.109039,588.125488 
	C212.101334,580.041199 214.237656,572.163696 216.626373,564.001587 
	C216.915421,563.907654 216.952072,564.098450 217.005402,564.578247 
	C215.128891,572.356140 213.235687,579.845093 211.222534,587.681519 
	C211.102585,588.029053 211.047745,588.513977 211.025497,588.756958 
z"/>
<path fill="#12C6E3" opacity="1.000000" stroke="none" 
	d="
M589.480347,641.425659 
	C590.652100,636.200867 592.178711,630.796021 593.984375,625.220337 
	C592.787354,630.448242 591.311218,635.846924 589.480347,641.425659 
z"/>
<path fill="#21E4EF" opacity="1.000000" stroke="none" 
	d="
M521.421387,425.971039 
	C522.360901,422.199554 523.635376,418.261505 525.196777,414.182190 
	C524.241211,417.962097 522.998840,421.883301 521.421387,425.971039 
z"/>
<path fill="#21E4EF" opacity="1.000000" stroke="none" 
	d="
M436.070526,554.426758 
	C437.666718,553.440125 439.542145,552.270996 441.800720,551.112366 
	C440.239136,552.163330 438.294464,553.203857 436.070526,554.426758 
z"/>
<path fill="#21E4EF" opacity="1.000000" stroke="none" 
	d="
M495.462769,294.778992 
	C493.954620,294.055847 492.290192,293.037964 490.580139,291.686035 
	C492.125153,292.396088 493.715820,293.440186 495.462769,294.778992 
z"/>
<path fill="#21E4EF" opacity="1.000000" stroke="none" 
	d="
M447.881958,548.402832 
	C449.192444,547.416992 450.777252,546.249084 452.737732,545.081787 
	C451.460999,546.128479 449.808624,547.174622 447.881958,548.402832 
z"/>
<path fill="#18CAE2" opacity="1.000000" stroke="none" 
	d="
M773.459839,539.093018 
	C774.593079,537.846191 776.039917,536.496765 777.855225,535.171753 
	C776.740173,536.460876 775.256775,537.725647 773.459839,539.093018 
z"/>
<path fill="#21E4EF" opacity="1.000000" stroke="none" 
	d="
M442.412170,551.143433 
	C443.588348,550.241516 445.098053,549.281616 446.981995,548.469116 
	C445.819366,549.439453 444.282532,550.262390 442.412170,551.143433 
z"/>
<path fill="#008FD0" opacity="1.000000" stroke="none" 
	d="
M264.708527,687.981323 
	C264.348816,686.765076 264.153595,685.245117 263.981628,683.360107 
	C264.004883,682.995117 263.999603,683.000000 264.328064,682.991333 
	C265.097778,682.987549 265.538971,682.992371 265.980194,682.997192 
	C265.611145,684.557251 265.242096,686.117432 264.708527,687.981323 
z"/>
<path fill="#18CAE2" opacity="1.000000" stroke="none" 
	d="
M761.468872,547.114685 
	C762.558044,546.150879 763.975342,545.121521 765.767822,544.102905 
	C764.694336,545.092102 763.245667,546.070618 761.468872,547.114685 
z"/>
<path fill="#04A5D8" opacity="1.000000" stroke="none" 
	d="
M191.423798,651.984314 
	C191.206604,654.076721 190.709732,656.443542 189.963913,659.130188 
	C190.191345,657.052917 190.667725,654.655823 191.423798,651.984314 
z"/>
<path fill="#18CAE2" opacity="1.000000" stroke="none" 
	d="
M769.420776,542.053772 
	C770.222229,541.133728 771.333496,540.124207 772.817505,539.135132 
	C772.037109,540.091858 770.883850,541.028076 769.420776,542.053772 
z"/>
<path fill="#21E4EF" opacity="1.000000" stroke="none" 
	d="
M488.999664,510.062866 
	C489.615356,509.214386 490.231079,508.365906 491.197052,507.591736 
	C491.146820,508.300415 490.746307,508.934845 489.913849,509.795105 
	C489.481873,510.020935 488.999664,510.062866 488.999664,510.062866 
z"/>
<path fill="#008FD0" opacity="1.000000" stroke="none" 
	d="
M181.737549,686.239807 
	C181.806656,686.926941 181.706879,687.890381 181.304932,688.924438 
	C181.191406,688.168701 181.380035,687.342407 181.737549,686.239807 
z"/>
<path fill="#21E4EF" opacity="1.000000" stroke="none" 
	d="
M453.383118,545.034302 
	C453.860352,544.434143 454.643005,543.761963 455.778015,543.088989 
	C455.316406,543.712891 454.502502,544.337585 453.383118,545.034302 
z"/>
<path fill="#18CAE2" opacity="1.000000" stroke="none" 
	d="
M766.403259,544.065247 
	C766.878845,543.464111 767.657776,542.786194 768.789673,542.114258 
	C768.330627,542.743042 767.518616,543.365723 766.403259,544.065247 
z"/>
<path fill="#21E4EF" opacity="1.000000" stroke="none" 
	d="
M495.118835,501.113831 
	C494.750000,502.098297 494.332611,503.038147 493.584534,504.103149 
	C493.253815,504.228271 492.997986,503.998993 492.922516,503.753998 
	C493.555511,502.666290 494.263947,501.823608 494.972412,500.980896 
	C494.972382,500.980865 495.070251,501.069244 495.118835,501.113831 
z"/>
<path fill="#04A5D8" opacity="1.000000" stroke="none" 
	d="
M502.935883,653.294678 
	C503.150696,653.898499 503.224915,654.790894 503.070496,655.885620 
	C502.826324,655.253052 502.810822,654.418091 502.935883,653.294678 
z"/>
<path fill="#21E4EF" opacity="1.000000" stroke="none" 
	d="
M819.983093,473.633362 
	C820.074829,472.752228 820.265747,471.528076 820.731934,470.152222 
	C820.698914,471.097107 820.390625,472.193726 819.983093,473.633362 
z"/>
<path fill="#09B3DD" opacity="1.000000" stroke="none" 
	d="
M279.459839,635.983276 
	C279.390076,634.991333 279.615265,633.775513 280.157471,632.336670 
	C280.234589,633.328857 279.994690,634.544128 279.459839,635.983276 
z"/>
<path fill="#008FD0" opacity="1.000000" stroke="none" 
	d="
M180.474182,690.042236 
	C180.671158,690.519348 180.639053,691.186768 180.341644,691.920044 
	C180.132599,691.401428 180.188858,690.817017 180.474182,690.042236 
z"/>
<path fill="#21E4EF" opacity="1.000000" stroke="none" 
	d="
M491.869873,507.146423 
	C491.524292,506.873169 491.335846,506.357422 491.341492,505.306091 
	C492.023102,504.513367 492.510529,504.256195 492.997986,503.998993 
	C492.997986,503.998993 493.253815,504.228271 493.380493,504.344421 
	C493.013763,505.275024 492.520355,506.089478 491.869873,507.146423 
z"/>
<path fill="#008FD0" opacity="1.000000" stroke="none" 
	d="
M575.415649,689.942139 
	C575.310425,688.947266 575.507263,687.730774 575.985962,686.259644 
	C576.084534,687.243469 575.901123,688.481934 575.415649,689.942139 
z"/>
<path fill="#007BC7" opacity="1.000000" stroke="none" 
	d="
M266.093781,682.737183 
	C265.538971,682.992371 265.097778,682.987549 264.325562,682.993774 
	C264.575989,682.455017 265.157440,681.905151 266.068146,681.359497 
	C266.334076,681.734863 266.270721,682.105957 266.093781,682.737183 
z"/>
<path fill="#21E4EF" opacity="1.000000" stroke="none" 
	d="
M456.379791,543.042603 
	C456.535614,542.485596 456.989197,541.845215 457.747284,541.120483 
	C457.593719,541.677185 457.135620,542.318237 456.379791,543.042603 
z"/>
<path fill="#09B3DD" opacity="1.000000" stroke="none" 
	d="
M278.000610,641.632690 
	C277.891235,641.126465 277.897827,640.277405 278.173096,639.288330 
	C278.333405,639.862122 278.225006,640.576050 278.000610,641.632690 
z"/>
<path fill="#09B3DD" opacity="1.000000" stroke="none" 
	d="
M278.552002,639.060425 
	C278.435333,638.371277 278.581604,637.446289 279.002563,636.280396 
	C279.123169,636.967896 278.969086,637.896179 278.552002,639.060425 
z"/>
<path fill="#21E4EF" opacity="1.000000" stroke="none" 
	d="
M784.353699,530.070557 
	C784.242615,529.586609 784.410767,528.971558 784.785217,528.102661 
	C785.196838,527.892212 785.402161,527.935669 785.916992,528.036133 
	C785.695251,528.708557 785.164062,529.323975 784.353699,530.070557 
z"/>
<path fill="#1BCBE2" opacity="1.000000" stroke="none" 
	d="
M484.333527,518.036987 
	C484.358429,517.649109 484.646423,517.116333 485.229919,516.470825 
	C485.215790,516.869385 484.906189,517.380737 484.333527,518.036987 
z"/>
<path fill="#04A5D8" opacity="1.000000" stroke="none" 
	d="
M581.007324,670.663818 
	C580.900635,670.422974 580.896057,669.887207 581.116028,669.247559 
	C581.263550,669.552002 581.186462,669.960510 581.007324,670.663818 
z"/>
<path fill="#21E4EF" opacity="1.000000" stroke="none" 
	d="
M791.315796,523.031738 
	C791.386719,522.688965 791.690491,522.244507 792.283447,521.801514 
	C792.231323,522.178589 791.889893,522.554321 791.315796,523.031738 
z"/>
<path fill="#1BCBE2" opacity="1.000000" stroke="none" 
	d="
M487.347748,514.037170 
	C487.326752,513.631042 487.578308,513.067932 488.100830,512.335632 
	C488.121307,512.737671 487.870819,513.308960 487.347748,514.037170 
z"/>
<path fill="#09B3DD" opacity="1.000000" stroke="none" 
	d="
M280.567535,632.100281 
	C280.423920,631.682373 280.540131,631.056091 280.885986,630.197144 
	C281.019531,630.606934 280.923431,631.249451 280.567535,632.100281 
z"/>
<path fill="#21E4EF" opacity="1.000000" stroke="none" 
	d="
M779.937744,533.041565 
	C780.467407,532.731506 780.997070,532.421448 781.840088,532.076050 
	C781.955078,532.317322 781.756714,532.593933 781.030212,532.943481 
	C780.314026,533.024780 780.125916,533.033203 779.937744,533.041565 
z"/>
<path fill="#18CAE2" opacity="1.000000" stroke="none" 
	d="
M779.797791,533.250366 
	C780.125916,533.033203 780.314026,533.024780 780.784546,533.023132 
	C780.714172,533.423645 780.361450,533.817444 779.764282,534.329041 
	C779.565857,534.117615 779.611816,533.788452 779.797791,533.250366 
z"/>
<path fill="#008FD0" opacity="1.000000" stroke="none" 
	d="
M574.345825,691.149170 
	C574.286804,690.952209 574.502502,690.649597 574.951538,690.190063 
	C574.996704,690.369873 574.808655,690.706665 574.345825,691.149170 
z"/>
<path fill="#008FD0" opacity="1.000000" stroke="none" 
	d="
M261.199097,692.105103 
	C261.062073,691.845154 261.291168,691.654724 261.771851,691.666626 
	C261.768280,691.822083 261.615570,691.924011 261.199097,692.105103 
z"/>
<path fill="#007BC7" opacity="1.000000" stroke="none" 
	d="
M266.561523,681.167114 
	C266.337616,680.995483 266.412231,680.679688 266.745667,680.196533 
	C266.851288,680.335571 266.803162,680.666870 266.561523,681.167114 
z"/>
<path fill="#008FD0" opacity="1.000000" stroke="none" 
	d="
M573.258667,692.000488 
	C573.230469,691.818054 573.480713,691.568481 573.955566,691.177002 
	C573.965820,691.334473 573.751465,691.633911 573.258667,692.000488 
z"/>
<path fill="#1BCBE2" opacity="1.000000" stroke="none" 
	d="
M485.609375,516.322449 
	C485.548462,516.141541 485.736084,515.799194 486.166565,515.289062 
	C486.225647,515.467896 486.041809,515.814453 485.609375,516.322449 
z"/>
<path fill="#1BCBE2" opacity="1.000000" stroke="none" 
	d="
M572.844482,409.201965 
	C573.200745,409.320221 573.154541,409.574677 572.690247,409.808655 
	C572.536865,409.849030 572.706726,409.399078 572.844482,409.201965 
z"/>
<path fill="#1BCBE2" opacity="1.000000" stroke="none" 
	d="
M489.028839,510.342163 
	C488.999664,510.062866 489.481873,510.020935 489.723328,510.004120 
	C489.851288,510.303558 489.737823,510.619781 489.389160,511.055420 
	C489.121979,510.990387 489.089996,510.805939 489.028839,510.342163 
z"/>
<path fill="#1BCBE2" opacity="1.000000" stroke="none" 
	d="
M488.471527,512.196655 
	C488.406403,512.014160 488.592773,511.710114 488.998657,511.248230 
	C489.053101,511.418671 488.888062,511.746887 488.471527,512.196655 
z"/>
<path fill="#1BCBE2" opacity="1.000000" stroke="none" 
	d="
M482.402954,520.160095 
	C482.362640,519.981140 482.584656,519.687744 483.040649,519.245850 
	C483.071503,519.413391 482.868439,519.729553 482.402954,520.160095 
z"/>
<path fill="#1BCBE2" opacity="1.000000" stroke="none" 
	d="
M481.418304,521.272461 
	C481.363373,521.077332 481.585876,520.758789 482.051941,520.271912 
	C482.095551,520.452026 481.895660,520.800537 481.418304,521.272461 
z"/>
<path fill="#21E4EF" opacity="1.000000" stroke="none" 
	d="
M792.994385,521.304932 
	C792.928955,521.328918 792.723816,521.088989 792.723816,521.088989 
	C792.723816,521.088989 792.861145,521.018799 792.948975,521.081177 
	C793.036804,521.143616 793.059814,521.281006 792.994385,521.304932 
z"/>
<path fill="#21E4EF" opacity="1.000000" stroke="none" 
	d="
M790.295532,524.088867 
	C790.266418,523.925842 790.500122,523.645264 790.945679,523.189758 
	C790.957764,523.333679 790.757996,523.652466 790.295532,524.088867 
z"/>
<path fill="#21E4EF" opacity="1.000000" stroke="none" 
	d="
M789.335815,525.106995 
	C789.306519,524.944885 789.536499,524.656067 789.986633,524.194275 
	C790.002930,524.341003 789.799011,524.660706 789.335815,525.106995 
z"/>
<path fill="#18CAE2" opacity="1.000000" stroke="none" 
	d="
M778.391113,535.191162 
	C778.399841,535.031433 778.668091,534.794373 779.205078,534.503845 
	C779.199402,534.671570 778.925049,534.892700 778.391113,535.191162 
z"/>
<path fill="#000109" opacity="1.000000" stroke="none" 
	d="
M632.106873,499.717010 
	C632.406616,497.768433 632.706360,495.819855 633.360657,493.346710 
	C636.330261,484.165771 639.011292,475.528687 641.546753,466.849091 
	C647.171326,447.594330 652.722839,428.318237 658.304077,409.050842 
	C658.304077,409.050842 658.142883,409.064117 658.444946,408.943665 
	C658.896118,407.901123 659.045166,406.979004 659.194214,406.056885 
	C659.562561,406.012207 659.805786,405.813995 660.000244,404.855011 
	C660.490356,402.526154 660.904053,400.804626 661.317749,399.083099 
	C661.317749,399.083099 661.163696,399.085663 661.470398,398.943359 
	C665.850769,385.732300 670.036316,372.696594 673.919434,359.571442 
	C674.889221,356.293671 676.333252,355.259979 679.764648,355.329498 
	C691.059937,355.558289 702.370605,355.122955 713.661560,355.437653 
	C722.752808,355.691010 731.824097,356.661835 740.904236,357.314331 
	C759.242432,364.861847 759.011047,377.133606 757.577209,393.271820 
	C756.858093,401.365997 754.024292,409.272308 752.042358,418.005585 
	C747.104919,433.559174 742.271851,448.370697 737.438843,463.182251 
	C737.438843,463.182251 737.183105,463.364197 737.087402,463.763580 
	C736.457947,465.197693 735.924133,466.232452 735.390320,467.267212 
	C735.390320,467.267181 735.294983,467.431641 735.164062,467.685547 
	C734.945190,468.285736 734.857239,468.631958 734.769226,468.978180 
	C734.769226,468.978180 734.907532,468.940002 734.608032,469.030823 
	C733.671814,470.224274 733.035156,471.326935 732.398438,472.429565 
	C732.398438,472.429565 732.336487,472.471954 732.146545,472.767029 
	C730.870422,474.676331 729.784180,476.290527 728.697937,477.904724 
	C728.170837,478.385010 727.643738,478.865326 726.785645,479.713043 
	C726.102295,480.495972 725.749878,480.911499 725.397461,481.326996 
	C725.397461,481.326996 725.292847,481.357941 725.056396,481.613037 
	C724.035278,482.785126 723.250671,483.702118 722.466064,484.619141 
	C722.466064,484.619141 722.641174,484.634155 722.354736,484.702271 
	C721.320618,485.497711 720.572937,486.225006 719.825256,486.952332 
	C719.510803,486.934021 719.247620,487.041443 718.648865,487.609589 
	C716.435669,489.242767 714.609375,490.540955 712.783081,491.839111 
	C712.783020,491.839081 712.867981,491.851227 712.644226,491.864014 
	C712.420471,491.876831 712.019348,492.104706 712.019348,492.104675 
	C708.822937,493.420258 705.626587,494.735840 701.800659,496.375336 
	C700.020142,497.053223 698.869080,497.407135 697.718079,497.761078 
	C697.718079,497.761078 697.892761,497.787781 697.500244,497.808716 
	C694.355652,498.521454 691.603638,499.213226 688.851562,499.904999 
	C688.851562,499.904999 688.927307,499.924835 688.457520,499.945892 
	C669.360779,499.883636 650.733826,499.800323 632.106873,499.717010 
z"/>
<path fill="#21E4EF" opacity="1.000000" stroke="none" 
	d="
M740.782959,357.001831 
	C731.824097,356.661835 722.752808,355.691010 713.661560,355.437653 
	C702.370605,355.122955 691.059937,355.558289 679.764648,355.329498 
	C676.333252,355.259979 674.889221,356.293671 673.919434,359.571442 
	C670.036316,372.696594 665.850769,385.732300 661.477112,399.020081 
	C662.300049,394.137451 663.144470,388.954315 664.607544,383.952118 
	C667.160339,375.223907 669.952393,366.556793 672.993286,357.988037 
	C673.568787,356.366302 675.764221,354.183319 677.216187,354.180267 
	C696.955505,354.138641 716.696228,354.394958 736.433899,354.735443 
	C737.854004,354.759918 739.252930,356.009399 740.782959,357.001831 
z"/>
<path fill="#21E4EF" opacity="1.000000" stroke="none" 
	d="
M658.019165,409.275146 
	C652.722839,428.318237 647.171326,447.594330 641.546753,466.849091 
	C639.011292,475.528687 636.330261,484.165771 633.372314,492.962982 
	C633.696533,489.677155 634.363647,486.250458 635.058411,482.422211 
	C638.250549,471.899323 641.503479,461.804565 644.550537,451.648041 
	C646.826294,444.062561 648.836304,436.397339 650.986389,428.386230 
	C653.250122,421.836395 655.492188,415.667908 658.019165,409.275146 
z"/>
<path fill="#21E4EF" opacity="1.000000" stroke="none" 
	d="
M737.786987,463.280151 
	C742.271851,448.370697 747.104919,433.559174 752.042847,418.383484 
	C752.362976,419.279236 753.033936,420.667236 752.721436,421.778809 
	C750.238403,430.612579 747.568604,439.393890 744.935486,448.586121 
	C743.341064,453.021973 741.826599,457.087891 740.147522,461.084717 
	C739.773987,461.973999 738.821167,462.619995 737.786987,463.280151 
z"/>
<path fill="#21E4EF" opacity="1.000000" stroke="none" 
	d="
M661.021484,399.270050 
	C660.904053,400.804626 660.490356,402.526154 659.966309,404.610596 
	C660.145752,403.134674 660.435486,401.295837 661.021484,399.270050 
z"/>
<path fill="#21E4EF" opacity="1.000000" stroke="none" 
	d="
M658.934692,406.293884 
	C659.045166,406.979004 658.896118,407.901123 658.456238,409.023743 
	C658.335388,408.326447 658.505310,407.428650 658.934692,406.293884 
z"/>
<path fill="#000109" opacity="1.000000" stroke="none" 
	d="
M323.491608,484.143005 
	C323.673492,483.620239 323.855377,483.097443 324.147278,481.947327 
	C330.205048,460.755493 336.159698,440.192963 342.097534,419.625610 
	C344.835724,410.141144 347.540985,400.647217 350.261139,391.157562 
	C350.261139,391.157562 350.182007,391.149536 350.487000,390.967590 
	C353.921722,380.229919 357.051453,369.674164 360.181152,359.118439 
	C360.181152,359.118439 360.099640,359.096985 360.445587,358.885742 
	C361.093750,355.577606 363.100769,355.296844 365.718353,355.315277 
	C379.960144,355.415771 394.210052,355.102753 408.442535,355.481812 
	C415.638123,355.673431 422.802887,357.024231 429.981567,357.850952 
	C430.140411,357.917358 430.299286,357.983765 430.883118,358.342407 
	C432.514069,359.134491 433.720032,359.634430 434.925995,360.134338 
	C434.925995,360.134338 434.926849,360.060211 435.065857,360.338715 
	C436.115295,361.145966 437.025757,361.674744 437.936188,362.203522 
	C437.953217,362.539642 438.110870,362.785645 438.772644,363.277283 
	C440.026245,364.494385 440.916382,365.375702 441.806549,366.257019 
	C441.806549,366.257019 441.851410,366.095520 441.860596,366.372162 
	C442.134094,366.940643 442.398376,367.232483 442.662689,367.524323 
	C442.662689,367.524323 442.584717,367.310699 442.648315,367.714966 
	C443.689087,373.041748 445.329529,377.944458 445.477356,382.891785 
	C445.666931,389.236755 444.656097,395.617615 444.162476,401.983002 
	C443.524231,404.747681 442.885986,407.512360 441.974731,410.967529 
	C436.314758,428.458649 430.927795,445.259308 425.299194,462.346802 
	C415.872467,483.805817 399.809723,495.920624 376.563904,499.066193 
	C370.868713,499.270813 365.599762,499.723938 360.326508,499.781494 
	C346.885498,499.928314 333.442535,499.898499 320.000366,499.939331 
	C320.627594,496.862823 321.254791,493.786285 321.975647,489.978638 
	C322.543365,487.545990 323.017487,485.844513 323.491608,484.143005 
z"/>
<path fill="#1FCCE0" opacity="1.000000" stroke="none" 
	d="
M243.234116,476.160156 
	C245.700592,466.573608 248.551392,457.247925 251.190659,447.862732 
	C255.172821,433.702179 258.997467,419.497375 262.924286,405.321106 
	C263.219482,404.255432 263.795624,403.267548 264.565552,402.087341 
	C266.564178,404.029083 268.238403,406.126984 270.319397,408.734619 
	C270.496979,404.680756 275.736633,401.349457 270.230408,397.709503 
	C273.978577,393.875793 283.840118,396.582520 292.050568,402.080017 
	C294.763977,402.341614 297.492889,402.919647 300.187103,402.787964 
	C303.886932,402.607208 307.553619,401.826569 311.247467,401.420563 
	C314.143860,401.102203 317.092804,401.160156 319.957275,400.683533 
	C322.494995,400.261292 324.948456,399.332764 326.448334,398.908203 
	C330.021667,400.494873 332.907104,402.064880 335.985901,402.994446 
	C337.143341,403.343872 338.784363,402.291534 340.142761,401.728302 
	C342.163544,400.890472 344.129150,399.919525 346.382874,399.348541 
	C343.515381,409.579102 340.343323,419.453949 337.263733,429.357544 
	C334.785461,437.327454 332.324066,445.304932 330.028717,453.328705 
	C327.589935,461.854095 325.355621,470.438019 323.032043,478.996368 
	C320.061188,478.996368 317.090363,478.996368 313.762482,478.996368 
	C313.927917,479.855713 314.146484,480.991272 314.368011,482.142181 
	C313.927582,482.238831 313.414978,482.446747 313.350861,482.351746 
	C309.322083,476.386322 304.191162,479.507263 299.255402,480.527954 
	C297.456879,480.899811 295.555206,480.814575 293.698975,480.847748 
	C292.749237,480.864746 291.333160,480.232452 290.916412,480.660797 
	C287.112061,484.571136 281.866577,483.270538 277.545135,483.673248 
	C269.455963,484.427032 261.186707,483.395355 253.007187,482.874115 
	C251.786102,482.796326 250.618210,481.495758 249.473465,480.692780 
	C247.470673,479.287842 245.504990,477.830048 243.234116,476.160156 
z"/>
<path fill="#1BCBE2" opacity="1.000000" stroke="none" 
	d="
M376.988190,499.134521 
	C399.809723,495.920624 415.872467,483.805817 425.540955,462.422180 
	C429.001465,454.805695 431.978638,447.400635 434.955811,439.995544 
	C438.006897,440.298737 440.208008,439.469971 442.020966,436.585419 
	C442.866852,435.239594 446.401184,433.926392 447.348938,434.580536 
	C452.172150,437.909454 457.259003,435.034454 462.158875,435.777740 
	C467.812927,436.635498 473.707703,436.211914 479.474792,435.906616 
	C483.055237,435.717102 486.569366,434.408844 490.153870,434.135559 
	C499.769745,433.402496 508.950989,433.989441 513.882935,444.781128 
	C512.704163,451.109344 511.340698,457.136322 509.973145,463.570190 
	C509.455688,464.364899 508.671600,464.645203 508.468750,465.156250 
	C504.152405,476.030396 499.895996,486.928345 495.649231,497.829987 
	C495.352264,498.592316 495.220734,499.419067 494.992310,500.598389 
	C494.263947,501.823608 493.555511,502.666290 492.922516,503.753998 
	C492.510529,504.256195 492.023102,504.513367 491.290833,504.896393 
	C490.654510,504.123901 490.173370,503.253235 489.885925,502.322784 
	C487.826233,495.655609 487.257385,495.772888 480.350555,497.418427 
	C474.188324,498.886536 467.439087,498.250244 461.506409,500.220978 
	C455.609863,502.179688 450.609131,503.880829 445.322571,499.261627 
	C444.637085,498.662659 442.524841,499.652008 441.088013,499.971008 
	C439.801025,500.256683 438.527344,500.945190 437.259277,500.918030 
	C428.577454,500.732269 419.898651,500.404724 410.693329,500.105835 
	C409.832825,503.074738 408.569153,506.523682 403.949982,502.250671 
	C403.104004,501.468079 400.777802,502.285614 399.134949,502.366180 
	C397.900604,496.811554 397.578827,496.597046 392.186279,497.569000 
	C391.984100,499.855255 391.786652,502.087952 391.589203,504.320648 
	C389.824951,502.746521 388.060669,501.172424 386.011902,499.344482 
	C385.790649,499.994049 385.573456,500.676086 385.326355,501.347137 
	C384.917297,502.457825 384.488892,503.561401 384.068634,504.667999 
	C382.800323,504.160919 381.470276,503.765717 380.283325,503.111115 
	C379.341156,502.591553 378.574188,501.754395 377.377502,500.717346 
	C377.013123,499.962494 377.000641,499.548492 376.988190,499.134521 
z"/>
<path fill="#21E4EF" opacity="1.000000" stroke="none" 
	d="
M323.029785,479.325623 
	C325.355621,470.438019 327.589935,461.854095 330.028717,453.328705 
	C332.324066,445.304932 334.785461,437.327454 337.263733,429.357544 
	C340.343323,419.453949 343.515381,409.579102 346.775696,399.349304 
	C347.782837,396.429657 348.661713,393.852570 349.900879,391.216522 
	C347.540985,400.647217 344.835724,410.141144 342.097534,419.625610 
	C336.159698,440.192963 330.205048,460.755493 324.103943,481.662689 
	C323.642944,481.221893 323.335236,480.438385 323.029785,479.325623 
z"/>
<path fill="#21E4EF" opacity="1.000000" stroke="none" 
	d="
M429.855133,357.521545 
	C422.802887,357.024231 415.638123,355.673431 408.442535,355.481812 
	C394.210052,355.102753 379.960144,355.415771 365.718353,355.315277 
	C363.100769,355.296844 361.093750,355.577606 360.460266,358.925232 
	C359.499817,355.116425 361.565399,353.935547 365.281250,353.953064 
	C382.860352,354.035950 400.443695,353.811096 418.016754,354.149689 
	C421.938812,354.225281 425.825653,356.129700 429.855133,357.521545 
z"/>
<path fill="#1FCCE0" opacity="1.000000" stroke="none" 
	d="
M298.386963,284.284241 
	C343.710419,284.047607 389.372589,284.036530 435.498779,284.036865 
	C434.371735,284.365356 432.781006,284.957611 431.189575,284.959473 
	C388.340485,285.009674 345.491302,285.003662 302.642151,284.978638 
	C301.336578,284.977875 300.031219,284.672913 298.386963,284.284241 
z"/>
<path fill="#21E4EF" opacity="1.000000" stroke="none" 
	d="
M434.966492,439.660767 
	C431.978638,447.400635 429.001465,454.805695 425.782593,462.135345 
	C430.927795,445.259308 436.314758,428.458649 441.916595,411.354553 
	C442.040588,413.302094 442.413971,415.696350 441.771790,417.777222 
	C439.839874,424.036926 437.512299,430.174530 435.190399,436.934479 
	C435.041748,437.509216 435.029541,437.987183 435.029541,437.987183 
	C435.012085,438.433472 434.994629,438.879730 434.966492,439.660767 
z"/>
<path fill="#21E4EF" opacity="1.000000" stroke="none" 
	d="
M444.479614,401.851868 
	C444.656097,395.617615 445.666931,389.236755 445.477356,382.891785 
	C445.329529,377.944458 443.689087,373.041748 442.546936,367.766388 
	C447.015930,369.362610 447.464172,373.761749 447.735718,377.740356 
	C448.103088,383.121887 447.882294,388.586334 447.382812,393.965912 
	C447.137543,396.608093 445.696625,399.139313 444.479614,401.851868 
z"/>
<path fill="#21E4EF" opacity="1.000000" stroke="none" 
	d="
M359.822632,359.179871 
	C357.051453,369.674164 353.921722,380.229919 350.490173,391.007202 
	C350.797791,387.235565 351.035126,383.139740 352.101074,379.272339 
	C353.837524,372.972443 356.096283,366.815308 358.197632,360.619263 
	C358.380890,360.078949 359.030884,359.696869 359.822632,359.179871 
z"/>
<path fill="#1FCCE0" opacity="1.000000" stroke="none" 
	d="
M265.427856,396.989868 
	C265.815002,395.379852 266.565521,393.764893 267.630005,392.027649 
	C268.207153,394.014191 270.318085,396.906067 265.427856,396.989868 
z"/>
<path fill="#21E4EF" opacity="1.000000" stroke="none" 
	d="
M434.882996,359.816498 
	C433.720032,359.634430 432.514069,359.134491 431.141235,358.351685 
	C432.262939,358.545410 433.551483,359.022034 434.882996,359.816498 
z"/>
<path fill="#21E4EF" opacity="1.000000" stroke="none" 
	d="
M441.836243,365.879211 
	C440.916382,365.375702 440.026245,364.494385 438.994354,363.330109 
	C439.857056,363.865234 440.861511,364.683319 441.836243,365.879211 
z"/>
<path fill="#21E4EF" opacity="1.000000" stroke="none" 
	d="
M437.871582,361.854431 
	C437.025757,361.674744 436.115295,361.145966 435.031067,360.351440 
	C435.840485,360.558899 436.823730,361.032135 437.871582,361.854431 
z"/>
<path fill="#21E4EF" opacity="1.000000" stroke="none" 
	d="
M442.562622,367.242798 
	C442.398376,367.232483 442.134094,366.940643 441.778564,366.354980 
	C441.945770,366.361206 442.204193,366.661224 442.562622,367.242798 
z"/>
<path fill="#1BCBE2" opacity="1.000000" stroke="none" 
	d="
M435.133057,437.885986 
	C435.029541,437.987183 435.041748,437.509216 435.057281,437.271240 
	C435.327667,437.249756 435.382263,437.500275 435.133057,437.885986 
z"/>
<path fill="#21E4EF" opacity="1.000000" stroke="none" 
	d="
M376.563904,499.066193 
	C377.000641,499.548492 377.013123,499.962494 377.018280,500.687012 
	C360.024353,501.002502 343.037689,501.023682 326.051147,500.988556 
	C324.246948,500.984802 322.443420,500.651001 320.319977,500.204834 
	C333.442535,499.898499 346.885498,499.928314 360.326508,499.781494 
	C365.599762,499.723938 370.868713,499.270813 376.563904,499.066193 
z"/>
<path fill="#0BBADF" opacity="1.000000" stroke="none" 
	d="
M327.877930,566.536438 
	C323.622009,566.886597 319.297241,566.905457 314.514954,566.899780 
	C317.747437,563.557678 324.513397,563.227966 327.877930,566.536438 
z"/>
<path fill="#21E4EF" opacity="1.000000" stroke="none" 
	d="
M323.199829,484.060425 
	C323.017487,485.844513 322.543365,487.545990 321.959656,489.609863 
	C319.653351,487.524139 319.887329,485.505066 323.199829,484.060425 
z"/>
<path fill="#21E4EF" opacity="1.000000" stroke="none" 
	d="
M632.226074,499.970093 
	C650.733826,499.800323 669.360779,499.883636 688.447266,499.908081 
	C688.927612,500.046478 688.948364,500.243744 688.566772,500.728455 
	C686.787415,501.024719 685.410339,501.033478 684.033325,501.042267 
	C667.656982,501.042267 651.280701,501.042267 634.204834,501.051270 
	C633.505249,501.060242 633.047180,501.081909 633.047180,501.081909 
	C632.813232,500.795685 632.579285,500.509430 632.226074,499.970093 
z"/>
<path fill="#21E4EF" opacity="1.000000" stroke="none" 
	d="
M689.237976,499.945557 
	C691.603638,499.213226 694.355652,498.521454 697.506531,497.720612 
	C695.812317,500.730194 692.793518,500.620270 689.237976,499.945557 
z"/>
<path fill="#21E4EF" opacity="1.000000" stroke="none" 
	d="
M713.169556,491.865540 
	C714.609375,490.540955 716.435669,489.242767 718.581787,487.818268 
	C717.119690,489.091949 715.337830,490.491943 713.169556,491.865540 
z"/>
<path fill="#21E4EF" opacity="1.000000" stroke="none" 
	d="
M729.055176,477.801331 
	C729.784180,476.290527 730.870422,474.676331 732.142700,472.804382 
	C733.540100,475.499908 731.701111,476.726227 729.055176,477.801331 
z"/>
<path fill="#21E4EF" opacity="1.000000" stroke="none" 
	d="
M732.765198,472.414551 
	C733.035156,471.326935 733.671814,470.224274 734.585693,468.962616 
	C734.285950,470.002258 733.708984,471.200867 732.765198,472.414551 
z"/>
<path fill="#21E4EF" opacity="1.000000" stroke="none" 
	d="
M722.817993,484.576660 
	C723.250671,483.702118 724.035278,482.785126 725.042480,481.665771 
	C724.566772,482.487030 723.868408,483.510620 722.817993,484.576660 
z"/>
<path fill="#12C6E3" opacity="1.000000" stroke="none" 
	d="
M684.299072,501.250488 
	C685.410339,501.033478 686.787415,501.024719 688.577881,501.025787 
	C687.515747,501.176666 686.040283,501.317688 684.299072,501.250488 
z"/>
<path fill="#21E4EF" opacity="1.000000" stroke="none" 
	d="
M735.733765,467.248352 
	C735.924133,466.232452 736.457947,465.197693 737.153015,463.906128 
	C736.901978,464.842651 736.489563,466.036072 735.733765,467.248352 
z"/>
<path fill="#21E4EF" opacity="1.000000" stroke="none" 
	d="
M698.115723,497.828278 
	C698.869080,497.407135 700.020142,497.053223 701.527405,496.579956 
	C700.760254,496.938934 699.636841,497.417206 698.115723,497.828278 
z"/>
<path fill="#21E4EF" opacity="1.000000" stroke="none" 
	d="
M720.174500,486.913452 
	C720.572937,486.225006 721.320618,485.497711 722.346436,484.614746 
	C721.924316,485.264313 721.223999,486.069458 720.174500,486.913452 
z"/>
<path fill="#21E4EF" opacity="1.000000" stroke="none" 
	d="
M725.696899,481.295044 
	C725.749878,480.911499 726.102295,480.495972 726.704468,479.972931 
	C726.634949,480.331299 726.315674,480.797211 725.696899,481.295044 
z"/>
<path fill="#21E4EF" opacity="1.000000" stroke="none" 
	d="
M734.937866,468.770447 
	C734.857239,468.631958 734.945190,468.285736 735.235474,467.748291 
	C735.327393,467.892303 735.216980,468.227478 734.937866,468.770447 
z"/>
<path fill="#21E4EF" opacity="1.000000" stroke="none" 
	d="
M712.146240,492.176453 
	C712.019348,492.104706 712.420471,491.876831 712.644165,491.821106 
	C712.776001,492.107422 712.577759,492.268341 712.146240,492.176453 
z"/>
<path fill="#12C6E3" opacity="1.000000" stroke="none" 
	d="
M633.148071,501.176331 
	C633.047180,501.081909 633.505249,501.060242 633.733948,501.062988 
	C633.962646,501.065765 633.638489,501.308624 633.638489,501.308624 
	C633.638489,501.308624 633.248901,501.270752 633.148071,501.176331 
z"/>
<path fill="#0BBADF" opacity="1.000000" stroke="none" 
	d="
M579.710693,574.199341 
	C586.570190,574.575073 592.991516,574.740173 599.388489,575.226257 
	C602.126160,575.434326 604.813049,576.310852 608.237854,577.034729 
	C605.399719,584.760803 602.856995,592.201233 599.828369,599.438354 
	C599.297485,600.706970 596.705322,601.863892 595.102478,601.816162 
	C580.194397,601.372864 565.298584,600.509583 550.390198,600.084106 
	C543.991882,599.901489 537.566528,600.719482 531.164978,600.574158 
	C528.116516,600.505005 525.095032,599.245850 520.850220,598.238281 
	C523.694763,588.143066 526.504272,578.172119 529.698730,566.835022 
	C538.955933,578.081787 550.381226,573.436157 560.402954,574.791626 
	C566.546814,575.622620 572.966736,574.412354 579.710693,574.199341 
z"/>
<path fill="#04A5D8" opacity="1.000000" stroke="none" 
	d="
M518.255920,605.651428 
	C518.390564,605.400085 518.557739,605.293518 518.724854,605.187012 
	C518.757874,605.313293 518.852112,605.522217 518.812988,605.551270 
	C518.661194,605.664001 518.466858,605.719482 518.255920,605.651428 
z"/>
<path fill="#008FD0" opacity="1.000000" stroke="none" 
	d="
M275.001495,644.002258 
	C275.002991,644.004517 275.158508,643.738403 275.158508,643.738403 
	C275.158508,643.738403 275.143829,643.923462 275.069824,643.960327 
	C274.995850,643.997131 275.000000,644.000000 275.001495,644.002258 
z"/>
<path fill="#008FD0" opacity="1.000000" stroke="none" 
	d="
M197.495728,637.511230 
	C197.488113,637.489075 197.503342,637.533325 197.495728,637.511230 
z"/>
</svg>